<?xml version="1.0" encoding="UTF-8"?><svg xmlns="http://www.w3.org/2000/svg" xmlns:xlink="http://www.w3.org/1999/xlink" fill-opacity="1" color-rendering="auto" color-interpolation="auto" text-rendering="auto" stroke="black" stroke-linecap="square" width="1600" stroke-miterlimit="10" shape-rendering="auto" stroke-opacity="1" fill="black" stroke-dasharray="none" font-weight="normal" stroke-width="1" height="818" font-family="'Dialog'" font-style="normal" stroke-linejoin="miter" font-size="12px" stroke-dashoffset="0" image-rendering="auto">
  <!--Generated by ySVG 2.5-->
  <defs id="genericDefs"/>
  <g>
    <defs id="defs1">
      <clipPath clipPathUnits="userSpaceOnUse" id="clipPath1">
        <path d="M0 0 L1600 0 L1600 818 L0 818 L0 0 Z"/>
      </clipPath>
      <clipPath clipPathUnits="userSpaceOnUse" id="clipPath2">
        <path d="M18 134 L710.1296 134 L710.1296 487.8513 L18 487.8513 L18 134 Z"/>
      </clipPath>
    </defs>
    <g fill="white" text-rendering="geometricPrecision" shape-rendering="geometricPrecision" transform="scale(2.3117,2.3117) translate(-18,-134)" stroke="white">
      <rect x="18" width="693" height="354" y="134" clip-path="url(#clipPath2)" stroke="none"/>
    </g>
    <g fill="red" text-rendering="geometricPrecision" shape-rendering="geometricPrecision" transform="matrix(2.3117,0,0,2.3117,-41.6107,-309.7686)" stroke="red">
      <circle r="15" clip-path="url(#clipPath2)" cx="157" cy="248" stroke="none"/>
    </g>
    <g text-rendering="geometricPrecision" stroke-miterlimit="1.45" shape-rendering="geometricPrecision" transform="matrix(2.3117,0,0,2.3117,-41.6107,-309.7686)" stroke-linecap="butt">
      <circle fill="none" r="15" clip-path="url(#clipPath2)" cx="157" cy="248"/>
      <text x="145.3369" y="252.1543" clip-path="url(#clipPath2)" fill="yellow" font-family="sans-serif" stroke="none" xml:space="preserve">CTS</text>
    </g>
    <g fill="red" text-rendering="geometricPrecision" shape-rendering="geometricPrecision" transform="matrix(2.3117,0,0,2.3117,-41.6107,-309.7686)" stroke="red">
      <circle r="15" clip-path="url(#clipPath2)" cx="157" cy="407" stroke="none"/>
    </g>
    <g text-rendering="geometricPrecision" stroke-miterlimit="1.45" shape-rendering="geometricPrecision" transform="matrix(2.3117,0,0,2.3117,-41.6107,-309.7686)" stroke-linecap="butt">
      <circle fill="none" r="15" clip-path="url(#clipPath2)" cx="157" cy="407"/>
      <text x="145.3369" y="411.1543" clip-path="url(#clipPath2)" fill="yellow" font-family="sans-serif" stroke="none" xml:space="preserve">CTS</text>
    </g>
    <g fill="rgb(255,204,0)" text-rendering="geometricPrecision" shape-rendering="geometricPrecision" transform="matrix(2.3117,0,0,2.3117,-41.6107,-309.7686)" stroke="rgb(255,204,0)">
      <path d="M214.4305 235.4228 L233.3425 224 L260.088 224 L279 235.4228 L279 251.5772 L260.088 263 L233.3425 263 L214.4305 251.5772 Z" fill-rule="evenodd" clip-path="url(#clipPath2)" stroke="none"/>
    </g>
    <g text-rendering="geometricPrecision" stroke-miterlimit="1.45" shape-rendering="geometricPrecision" transform="matrix(2.3117,0,0,2.3117,-41.6107,-309.7686)" stroke-linecap="butt">
      <path fill="none" d="M214.4305 235.4228 L233.3425 224 L260.088 224 L279 235.4228 L279 251.5772 L260.088 263 L233.3425 263 L214.4305 251.5772 Z" fill-rule="evenodd" clip-path="url(#clipPath2)"/>
      <text x="218.3442" xml:space="preserve" y="247.6543" clip-path="url(#clipPath2)" font-family="sans-serif" stroke="none">CITE URN</text>
    </g>
    <g fill="rgb(255,204,0)" text-rendering="geometricPrecision" shape-rendering="geometricPrecision" transform="matrix(2.3117,0,0,2.3117,-41.6107,-309.7686)" stroke="rgb(255,204,0)">
      <path d="M208.4305 398.9229 L227.3424 387.5 L254.0881 387.5 L273 398.9229 L273 415.0771 L254.0881 426.5 L227.3424 426.5 L208.4305 415.0771 Z" fill-rule="evenodd" clip-path="url(#clipPath2)" stroke="none"/>
    </g>
    <g text-rendering="geometricPrecision" stroke-miterlimit="1.45" shape-rendering="geometricPrecision" transform="matrix(2.3117,0,0,2.3117,-41.6107,-309.7686)" stroke-linecap="butt">
      <path fill="none" d="M208.4305 398.9229 L227.3424 387.5 L254.0881 387.5 L273 398.9229 L273 415.0771 L254.0881 426.5 L227.3424 426.5 L208.4305 415.0771 Z" fill-rule="evenodd" clip-path="url(#clipPath2)"/>
      <text x="212.3442" xml:space="preserve" y="411.1543" clip-path="url(#clipPath2)" font-family="sans-serif" stroke="none">CITE URN</text>
    </g>
    <g fill="rgb(255,204,153)" text-rendering="geometricPrecision" shape-rendering="geometricPrecision" transform="matrix(2.3117,0,0,2.3117,-41.6107,-309.7686)" stroke="rgb(255,204,153)">
      <path d="M313.5 343.9229 L349.5267 332.5 L400.4733 332.5 L436.5 343.9229 L436.5 360.0771 L400.4733 371.5 L349.5267 371.5 L313.5 360.0771 Z" fill-rule="evenodd" clip-path="url(#clipPath2)" stroke="none"/>
    </g>
    <g text-rendering="geometricPrecision" stroke-miterlimit="1.45" shape-rendering="geometricPrecision" transform="matrix(2.3117,0,0,2.3117,-41.6107,-309.7686)" stroke-linecap="butt">
      <path fill="none" d="M313.5 343.9229 L349.5267 332.5 L400.4733 332.5 L436.5 343.9229 L436.5 360.0771 L400.4733 371.5 L349.5267 371.5 L313.5 360.0771 Z" fill-rule="evenodd" clip-path="url(#clipPath2)"/>
      <text x="318.4219" xml:space="preserve" y="356.1543" clip-path="url(#clipPath2)" font-family="sans-serif" stroke="none">CITE URN for place</text>
    </g>
    <g fill="rgb(153,204,255)" text-rendering="geometricPrecision" shape-rendering="geometricPrecision" transform="matrix(2.3117,0,0,2.3117,-41.6107,-309.7686)" stroke="rgb(153,204,255)">
      <rect x="460" width="232" height="30" y="337" clip-path="url(#clipPath2)" stroke="none"/>
    </g>
    <g text-rendering="geometricPrecision" stroke-miterlimit="1.45" shape-rendering="geometricPrecision" transform="matrix(2.3117,0,0,2.3117,-41.6107,-309.7686)" stroke-linecap="butt">
      <rect fill="none" x="460" width="232" height="30" y="337" clip-path="url(#clipPath2)"/>
      <text x="483.0234" xml:space="preserve" y="356.1543" clip-path="url(#clipPath2)" font-family="sans-serif" stroke="none">Linked data URI for Alba Longa</text>
      <path fill="none" d="M214.43 245.1194 L179.9711 246.8478" clip-path="url(#clipPath2)"/>
      <path d="M171.9812 247.2486 L184.2166 251.6411 L180.9698 246.7977 L183.7156 241.6537 Z" clip-path="url(#clipPath2)" stroke="none"/>
      <path fill="none" d="M208.4636 407 L180 407" clip-path="url(#clipPath2)"/>
      <path d="M172 407 L184 412 L181 407 L184 402 Z" clip-path="url(#clipPath2)" stroke="none"/>
      <path fill="none" d="M314.6537 368.4535 L314.6537 407 L273.0273 407" clip-path="url(#clipPath2)"/>
      <path d="M314.6537 360.4535 L309.6537 372.4535 L314.6537 369.4535 L319.6537 372.4535 Z" clip-path="url(#clipPath2)" stroke="none"/>
      <path fill="none" d="M308.4289 343 L246.7153 343 L246.7153 262.9822" clip-path="url(#clipPath2)"/>
      <path d="M316.4289 343 L304.4289 338 L307.4289 343 L304.4289 348 Z" clip-path="url(#clipPath2)" stroke="none"/>
      <path fill="none" d="M460 352 L444.4673 352" clip-path="url(#clipPath2)"/>
      <path d="M436.4673 352 L448.4673 357 L445.4673 352 L448.4673 347 Z" clip-path="url(#clipPath2)" stroke="none"/>
    </g>
    <g fill="rgb(204,255,204)" text-rendering="geometricPrecision" shape-rendering="geometricPrecision" transform="matrix(2.3117,0,0,2.3117,-41.6107,-309.7686)" stroke="rgb(204,255,204)">
      <rect x="21.8584" y="196.5391" clip-path="url(#clipPath2)" width="91.1416" rx="4" ry="4" height="240.4609" stroke="none"/>
      <rect x="21.8584" width="91.1416" height="21.4609" y="196.5391" clip-path="url(#clipPath2)" stroke="none"/>
    </g>
    <g font-size="15px" stroke-linecap="butt" transform="matrix(2.3117,0,0,2.3117,-41.6107,-309.7686)" text-rendering="geometricPrecision" font-family="sans-serif" shape-rendering="geometricPrecision" font-weight="bold" stroke-miterlimit="1.45">
      <text x="37.7185" xml:space="preserve" y="212.4624" clip-path="url(#clipPath2)" stroke="none">Edition</text>
    </g>
    <g text-rendering="geometricPrecision" stroke-miterlimit="1.45" stroke-dasharray="6,2" shape-rendering="geometricPrecision" transform="matrix(2.3117,0,0,2.3117,-41.6107,-309.7686)" stroke-linecap="butt">
      <rect x="21.8584" y="196.5391" clip-path="url(#clipPath2)" fill="none" width="91.1416" rx="4" ry="4" height="240.4609"/>
    </g>
    <g fill="rgb(153,204,0)" text-rendering="geometricPrecision" shape-rendering="geometricPrecision" transform="matrix(2.3117,0,0,2.3117,-41.6107,-309.7686)" stroke="rgb(153,204,0)">
      <rect x="44" width="52" height="30" y="261.8056" clip-path="url(#clipPath2)" stroke="none"/>
    </g>
    <g text-rendering="geometricPrecision" stroke-miterlimit="1.45" shape-rendering="geometricPrecision" transform="matrix(2.3117,0,0,2.3117,-41.6107,-309.7686)" stroke-linecap="butt">
      <rect fill="none" x="44" width="52" height="30" y="261.8056" clip-path="url(#clipPath2)"/>
      <text x="50.8984" xml:space="preserve" y="280.9598" clip-path="url(#clipPath2)" font-family="sans-serif" stroke="none">Albam</text>
    </g>
    <g fill="rgb(153,204,0)" text-rendering="geometricPrecision" shape-rendering="geometricPrecision" transform="matrix(2.3117,0,0,2.3117,-41.6107,-309.7686)" stroke="rgb(153,204,0)">
      <rect x="44" width="52" height="30" y="337" clip-path="url(#clipPath2)" stroke="none"/>
    </g>
    <g text-rendering="geometricPrecision" stroke-miterlimit="1.45" shape-rendering="geometricPrecision" transform="matrix(2.3117,0,0,2.3117,-41.6107,-309.7686)" stroke-linecap="butt">
      <rect fill="none" x="44" width="52" height="30" y="337" clip-path="url(#clipPath2)"/>
      <text x="47.5293" xml:space="preserve" y="356.1543" clip-path="url(#clipPath2)" font-family="sans-serif" stroke="none">longam</text>
    </g>
    <g fill="rgb(255,204,153)" text-rendering="geometricPrecision" shape-rendering="geometricPrecision" transform="matrix(2.3117,0,0,2.3117,-41.6107,-309.7686)" stroke="rgb(255,204,153)">
      <path d="M313.5 268.7283 L349.5259 257.3055 L400.4741 257.3055 L436.5 268.7283 L436.5 284.8827 L400.4741 296.3055 L349.5259 296.3055 L313.5 284.8827 Z" fill-rule="evenodd" clip-path="url(#clipPath2)" stroke="none"/>
    </g>
    <g text-rendering="geometricPrecision" stroke-miterlimit="1.45" shape-rendering="geometricPrecision" transform="matrix(2.3117,0,0,2.3117,-41.6107,-309.7686)" stroke-linecap="butt">
      <path fill="none" d="M313.5 268.7283 L349.5259 257.3055 L400.4741 257.3055 L436.5 268.7283 L436.5 284.8827 L400.4741 296.3055 L349.5259 296.3055 L313.5 284.8827 Z" fill-rule="evenodd" clip-path="url(#clipPath2)"/>
      <text x="315.4512" xml:space="preserve" y="280.9598" clip-path="url(#clipPath2)" font-family="sans-serif" stroke="none">CITE URN for period</text>
    </g>
    <g fill="rgb(153,204,255)" text-rendering="geometricPrecision" shape-rendering="geometricPrecision" transform="matrix(2.3117,0,0,2.3117,-41.6107,-309.7686)" stroke="rgb(153,204,255)">
      <rect x="460" width="232" height="30" y="261.8056" clip-path="url(#clipPath2)" stroke="none"/>
    </g>
    <g text-rendering="geometricPrecision" stroke-miterlimit="1.45" shape-rendering="geometricPrecision" transform="matrix(2.3117,0,0,2.3117,-41.6107,-309.7686)" stroke-linecap="butt">
      <rect fill="none" x="460" width="232" height="30" y="261.8056" clip-path="url(#clipPath2)"/>
      <text x="479.417" xml:space="preserve" y="280.9598" clip-path="url(#clipPath2)" font-family="sans-serif" stroke="none">Linked data URI for -700 to -550</text>
      <path fill="none" d="M142.7602 252.7148 L103.5945 265.6825" clip-path="url(#clipPath2)"/>
      <path d="M96 268.197 L108.9634 269.1718 L104.5439 265.3681 L105.8202 259.6786 Z" clip-path="url(#clipPath2)" stroke="none"/>
      <path fill="none" d="M144.3211 398.9846 L100.4893 371.2749" clip-path="url(#clipPath2)"/>
      <path d="M93.7273 367 L101.1986 377.6386 L101.3346 371.8092 L106.5422 369.186 Z" clip-path="url(#clipPath2)" stroke="none"/>
      <path fill="none" d="M228.1251 387.4755 L227.6004 276.8588 L227.6004 276.8588 L313.2486 276.8055 L303.4106 276.8055 L305.2486 276.8055" clip-path="url(#clipPath2)"/>
      <path d="M313.2486 276.8055 L301.2486 271.8055 L304.2486 276.8055 L301.2486 281.8055 Z" clip-path="url(#clipPath2)" stroke="none"/>
      <path fill="none" d="M375 249.2876 L375 240.4005 L279.0057 242.7198" clip-path="url(#clipPath2)"/>
      <path d="M375 257.2876 L380 245.2876 L375 248.2876 L370 245.2876 Z" clip-path="url(#clipPath2)" stroke="none"/>
      <path fill="none" d="M460 276.8055 L444.4673 276.8055" clip-path="url(#clipPath2)"/>
      <path d="M436.4673 276.8055 L448.4673 281.8055 L445.4673 276.8055 L448.4673 271.8055 Z" clip-path="url(#clipPath2)" stroke="none"/>
    </g>
  </g>
</svg>
