<?xml version="1.0" encoding="UTF-8"?><svg xmlns="http://www.w3.org/2000/svg" xmlns:xlink="http://www.w3.org/1999/xlink" fill-opacity="1" color-rendering="auto" color-interpolation="auto" text-rendering="auto" stroke="black" stroke-linecap="square" width="3200" stroke-miterlimit="10" shape-rendering="auto" stroke-opacity="1" fill="black" stroke-dasharray="none" font-weight="normal" stroke-width="1" height="2040" font-family="'Dialog'" font-style="normal" stroke-linejoin="miter" font-size="12px" stroke-dashoffset="0" image-rendering="auto">
  <!--Generated by ySVG 2.5-->
  <defs id="genericDefs"/>
  <g>
    <defs id="defs1">
      <clipPath clipPathUnits="userSpaceOnUse" id="clipPath1">
        <path d="M0 0 L3200 0 L3200 2040 L0 2040 L0 0 Z"/>
      </clipPath>
      <clipPath clipPathUnits="userSpaceOnUse" id="clipPath2">
        <path d="M561 -304 L2269 -304 L2269 784.85 L561 784.85 L561 -304 Z"/>
      </clipPath>
    </defs>
    <g fill="white" text-rendering="geometricPrecision" shape-rendering="geometricPrecision" transform="scale(1.8735,1.8735) translate(-561,304)" stroke="white">
      <rect x="561" width="1708" height="1089" y="-304" clip-path="url(#clipPath2)" stroke="none"/>
    </g>
    <g fill="rgb(255,255,51)" text-rendering="geometricPrecision" shape-rendering="geometricPrecision" transform="matrix(1.8735,0,0,1.8735,-1051.0539,569.555)" stroke="rgb(255,255,51)">
      <rect x="607.1818" width="1657.6562" height="52.8906" y="-299.4141" clip-path="url(#clipPath2)" stroke="none"/>
    </g>
    <g font-size="42px" stroke-linecap="butt" transform="matrix(1.8735,0,0,1.8735,-1051.0539,569.555)" text-rendering="geometricPrecision" shape-rendering="geometricPrecision" font-weight="bold" stroke-miterlimit="1.45">
      <text x="1775.3673" xml:space="preserve" y="-258.4287" clip-path="url(#clipPath2)" stroke="none">CITE URN note:Asiae</text>
    </g>
    <g stroke-linecap="butt" transform="matrix(1.8735,0,0,1.8735,-1051.0539,569.555)" text-rendering="geometricPrecision" shape-rendering="geometricPrecision" stroke-dasharray="24,8" stroke-width="4" stroke-miterlimit="1.45">
      <rect x="607.1818" y="-299.4141" clip-path="url(#clipPath2)" fill="none" width="1657.6562" rx="4" ry="4" height="1079.6875"/>
    </g>
    <g fill="rgb(0,204,204)" text-rendering="geometricPrecision" shape-rendering="geometricPrecision" transform="matrix(1.8735,0,0,1.8735,-1051.0539,569.555)" stroke="rgb(0,204,204)">
      <ellipse rx="813.8281" ry="498.3984" clip-path="url(#clipPath2)" cx="1436.0099" cy="266.875" stroke="none"/>
    </g>
    <g text-rendering="geometricPrecision" stroke-miterlimit="1.45" shape-rendering="geometricPrecision" transform="matrix(1.8735,0,0,1.8735,-1051.0539,569.555)" stroke-linecap="butt">
      <ellipse rx="813.8281" fill="none" ry="498.3984" clip-path="url(#clipPath2)" cx="1436.0099" cy="266.875"/>
    </g>
    <g stroke-linecap="butt" font-size="48px" transform="matrix(1.8735,0,0,1.8735,-1051.0539,569.555)" fill="yellow" text-rendering="geometricPrecision" shape-rendering="geometricPrecision" stroke="yellow" font-weight="bold" stroke-miterlimit="1.45">
      <text x="1427.6544" xml:space="preserve" y="-180.9688" clip-path="url(#clipPath2)" stroke="none"> </text>
      <text x="1164.006" xml:space="preserve" y="-125.0938" clip-path="url(#clipPath2)" stroke="none">CITE URN thing:Asia</text>
      <text x="1288.881" xml:space="preserve" y="-69.2188" clip-path="url(#clipPath2)" stroke="none">whole:Asia</text>
    </g>
    <g fill="rgb(255,204,204)" text-rendering="geometricPrecision" shape-rendering="geometricPrecision" transform="matrix(1.8735,0,0,1.8735,-1051.0539,569.555)" stroke="rgb(255,204,204)">
      <ellipse rx="370.9958" ry="285.0692" clip-path="url(#clipPath2)" cx="1835.5926" cy="304.6069" stroke="none"/>
    </g>
    <g text-rendering="geometricPrecision" stroke-miterlimit="1.45" shape-rendering="geometricPrecision" transform="matrix(1.8735,0,0,1.8735,-1051.0539,569.555)" stroke-linecap="butt">
      <ellipse rx="370.9958" fill="none" ry="285.0692" clip-path="url(#clipPath2)" cx="1835.5926" cy="304.6069"/>
      <text x="1633.9364" xml:space="preserve" font-size="48px" y="293.2866" clip-path="url(#clipPath2)" stroke="none">linked open data</text>
      <text x="1674.8466" xml:space="preserve" font-size="48px" y="349.1616" clip-path="url(#clipPath2)" stroke="none">for thing:Asia</text>
    </g>
    <g fill="rgb(255,204,0)" text-rendering="geometricPrecision" shape-rendering="geometricPrecision" transform="matrix(1.8735,0,0,1.8735,-1051.0539,569.555)" stroke="rgb(255,204,0)">
      <ellipse rx="370.9958" ry="285.0692" clip-path="url(#clipPath2)" cx="1008.1776" cy="298.3879" stroke="none"/>
    </g>
    <g text-rendering="geometricPrecision" stroke-miterlimit="1.45" shape-rendering="geometricPrecision" transform="matrix(1.8735,0,0,1.8735,-1051.0539,569.555)" stroke-linecap="butt">
      <ellipse rx="370.9958" fill="none" ry="285.0692" clip-path="url(#clipPath2)" cx="1008.1776" cy="298.3879"/>
      <text x="690.7708" xml:space="preserve" font-size="46px" y="287.5392" clip-path="url(#clipPath2)" stroke="none">CITE URN thing:urbes Asiae</text>
      <text x="803.5472" xml:space="preserve" font-size="46px" y="341.0861" clip-path="url(#clipPath2)" stroke="none">partOf whole:Asia</text>
    </g>
    <g fill="rgb(0,255,204)" text-rendering="geometricPrecision" shape-rendering="geometricPrecision" transform="matrix(1.8735,0,0,1.8735,-1051.0539,569.555)" stroke="rgb(0,255,204)">
      <rect x="565.5111" width="855.9037" height="50.5625" y="-55.9262" clip-path="url(#clipPath2)" stroke="none"/>
    </g>
    <g text-rendering="geometricPrecision" stroke-miterlimit="1.45" font-size="40px" shape-rendering="geometricPrecision" transform="matrix(1.8735,0,0,1.8735,-1051.0539,569.555)" stroke-linecap="butt">
      <text x="833.1454" xml:space="preserve" y="-16.7973" clip-path="url(#clipPath2)" stroke="none">CITE URN phrase:urbes Asiae</text>
      <rect x="565.5111" y="-55.9262" clip-path="url(#clipPath2)" fill="none" width="855.9037" stroke-dasharray="24,8" rx="4" ry="4" height="645.6023" stroke-width="4"/>
    </g>
  </g>
</svg>
