<?xml version="1.0" encoding="UTF-8"?><svg xmlns="http://www.w3.org/2000/svg" xmlns:xlink="http://www.w3.org/1999/xlink" fill-opacity="1" color-rendering="auto" color-interpolation="auto" text-rendering="auto" stroke="black" stroke-linecap="square" width="3200" stroke-miterlimit="10" shape-rendering="auto" stroke-opacity="1" fill="black" stroke-dasharray="none" font-weight="normal" stroke-width="1" height="2175" font-family="'Dialog'" font-style="normal" stroke-linejoin="miter" font-size="12px" stroke-dashoffset="0" image-rendering="auto">
  <!--Generated by ySVG 2.5-->
  <defs id="genericDefs"/>
  <g>
    <defs id="defs1">
      <clipPath clipPathUnits="userSpaceOnUse" id="clipPath1">
        <path d="M0 0 L3200 0 L3200 2175 L0 2175 L0 0 Z"/>
      </clipPath>
      <clipPath clipPathUnits="userSpaceOnUse" id="clipPath2">
        <path d="M491 -424 L2269 -424 L2269 784.4844 L491 784.4844 L491 -424 Z"/>
      </clipPath>
    </defs>
    <g fill="white" text-rendering="geometricPrecision" shape-rendering="geometricPrecision" transform="scale(1.7998,1.7998) translate(-491,424)" stroke="white">
      <rect x="491" width="1778" height="1209" y="-424" clip-path="url(#clipPath2)" stroke="none"/>
    </g>
    <g fill="rgb(255,255,51)" text-rendering="geometricPrecision" shape-rendering="geometricPrecision" transform="matrix(1.7998,0,0,1.7998,-883.6895,763.1046)" stroke="rgb(255,255,51)">
      <rect x="607.1818" width="1657.6562" height="52.8906" y="-419.1641" clip-path="url(#clipPath2)" stroke="none"/>
    </g>
    <g font-size="42px" stroke-linecap="butt" transform="matrix(1.7998,0,0,1.7998,-883.6895,763.1046)" text-rendering="geometricPrecision" font-family="'Droid Sans Mono'" shape-rendering="geometricPrecision" font-weight="bold" stroke-miterlimit="1.45">
      <text x="1739.9298" xml:space="preserve" y="-378.1787" clip-path="url(#clipPath2)" stroke="none">CITE URN note:Asiae</text>
    </g>
    <g stroke-linecap="butt" transform="matrix(1.7998,0,0,1.7998,-883.6895,763.1046)" text-rendering="geometricPrecision" shape-rendering="geometricPrecision" stroke-dasharray="24,8" stroke-width="4" stroke-miterlimit="1.45">
      <rect x="607.1818" y="-419.1641" clip-path="url(#clipPath2)" fill="none" width="1657.6562" rx="4" ry="4" height="1199.4375"/>
    </g>
    <g fill="rgb(0,204,204)" text-rendering="geometricPrecision" shape-rendering="geometricPrecision" transform="matrix(1.7998,0,0,1.7998,-883.6895,763.1046)" stroke="rgb(0,204,204)">
      <ellipse rx="813.8281" ry="498.3984" clip-path="url(#clipPath2)" cx="1436.0099" cy="266.875" stroke="none"/>
    </g>
    <g text-rendering="geometricPrecision" stroke-miterlimit="1.45" shape-rendering="geometricPrecision" transform="matrix(1.7998,0,0,1.7998,-883.6895,763.1046)" stroke-linecap="butt">
      <ellipse rx="813.8281" fill="none" ry="498.3984" clip-path="url(#clipPath2)" cx="1436.0099" cy="266.875"/>
      <text x="1137.2052" font-size="48px" y="-304.7188" clip-path="url(#clipPath2)" font-family="'Droid Sans Mono'" stroke="none" font-weight="bold" xml:space="preserve">CITE URN thing:Asia</text>
      <text x="1278.7443" font-size="48px" y="-248.8438" clip-path="url(#clipPath2)" font-family="'Droid Sans Mono'" stroke="none" font-weight="bold" xml:space="preserve">whole:Asia</text>
    </g>
    <g fill="rgb(255,204,204)" text-rendering="geometricPrecision" shape-rendering="geometricPrecision" transform="matrix(1.7998,0,0,1.7998,-883.6895,763.1046)" stroke="rgb(255,204,204)">
      <ellipse rx="370.9958" ry="285.0692" clip-path="url(#clipPath2)" cx="1835.5926" cy="279.4177" stroke="none"/>
    </g>
    <g text-rendering="geometricPrecision" stroke-miterlimit="1.45" shape-rendering="geometricPrecision" transform="matrix(1.7998,0,0,1.7998,-883.6895,763.1046)" stroke-linecap="butt">
      <ellipse rx="370.9958" fill="none" ry="285.0692" clip-path="url(#clipPath2)" cx="1835.5926" cy="279.4177"/>
      <text x="1605.1552" font-size="48px" y="268.0974" clip-path="url(#clipPath2)" font-family="'Droid Sans Mono'" stroke="none" xml:space="preserve">linked open data</text>
      <text x="1633.9598" font-size="48px" y="323.9724" clip-path="url(#clipPath2)" font-family="'Droid Sans Mono'" stroke="none" xml:space="preserve">for thing:Asia</text>
    </g>
    <g fill="rgb(255,204,0)" text-rendering="geometricPrecision" shape-rendering="geometricPrecision" transform="matrix(1.7998,0,0,1.7998,-883.6895,763.1046)" stroke="rgb(255,204,0)">
      <ellipse rx="370.9958" ry="285.0692" clip-path="url(#clipPath2)" cx="1008.1776" cy="273.1987" stroke="none"/>
    </g>
    <g text-rendering="geometricPrecision" stroke-miterlimit="1.45" shape-rendering="geometricPrecision" transform="matrix(1.7998,0,0,1.7998,-883.6895,763.1046)" stroke-linecap="butt">
      <ellipse rx="370.9958" fill="none" ry="285.0692" clip-path="url(#clipPath2)" cx="1008.1776" cy="273.1987"/>
      <text x="649.3192" font-size="46px" y="-82.2661" clip-path="url(#clipPath2)" font-family="'Droid Sans Mono'" stroke="none" xml:space="preserve">CITE URN thing:urbes Asiae</text>
      <text x="773.5394" font-size="46px" y="-28.7192" clip-path="url(#clipPath2)" font-family="'Droid Sans Mono'" stroke="none" xml:space="preserve">partOf whole:Asia</text>
    </g>
    <g fill="rgb(255,204,204)" text-rendering="geometricPrecision" shape-rendering="geometricPrecision" transform="matrix(1.7998,0,0,1.7998,-883.6895,763.1046)" stroke="rgb(255,204,204)">
      <ellipse rx="305.5862" ry="153.9282" clip-path="url(#clipPath2)" cx="1008.1776" cy="273.1987" stroke="none"/>
    </g>
    <g text-rendering="geometricPrecision" stroke-miterlimit="1.45" shape-rendering="geometricPrecision" transform="matrix(1.7998,0,0,1.7998,-883.6895,763.1046)" stroke-linecap="butt">
      <ellipse rx="305.5862" fill="none" ry="153.9282" clip-path="url(#clipPath2)" cx="1008.1776" cy="273.1987"/>
      <text x="804.1443" font-size="40px" y="263.7651" clip-path="url(#clipPath2)" font-family="'Droid Sans Mono'" stroke="none" xml:space="preserve">linked open data </text>
      <text x="756.1365" font-size="40px" y="310.3276" clip-path="url(#clipPath2)" font-family="'Droid Sans Mono'" stroke="none" xml:space="preserve">for thing:urbes Asiae</text>
    </g>
    <g fill="rgb(0,255,204)" text-rendering="geometricPrecision" shape-rendering="geometricPrecision" transform="matrix(1.7998,0,0,1.7998,-883.6895,763.1046)" stroke="rgb(0,255,204)">
      <rect x="495.8348" width="938.7621" height="50.5625" y="-192.2208" clip-path="url(#clipPath2)" stroke="none"/>
    </g>
    <g font-size="40px" stroke-linecap="butt" transform="matrix(1.7998,0,0,1.7998,-883.6895,763.1046)" text-rendering="geometricPrecision" font-family="'Droid Sans Mono'" shape-rendering="geometricPrecision" stroke-miterlimit="1.45">
      <text x="784.4914" xml:space="preserve" y="-153.0919" clip-path="url(#clipPath2)" stroke="none">CITE URN phrase:urbes Asiae</text>
    </g>
    <g stroke-linecap="butt" transform="matrix(1.7998,0,0,1.7998,-883.6895,763.1046)" text-rendering="geometricPrecision" shape-rendering="geometricPrecision" stroke-dasharray="24,8" stroke-width="4" stroke-miterlimit="1.45">
      <rect x="495.8348" y="-192.2208" clip-path="url(#clipPath2)" fill="none" width="938.7621" rx="4" ry="4" height="818.8481"/>
    </g>
  </g>
</svg>
