<svg xmlns="http://www.w3.org/2000/svg" style="" width="1204px" height="885px" viewBox="0 0 1204 885" xmlns:xlink="http://www.w3.org/1999/xlink"><defs><path fill="rgb(0,0,0)" stroke="rgb(0,0,0)" d="M 0,0 L 10,-5 L 5,0 L 10,5 Z" fill-opacity="1" stroke-opacity="1" stroke-width="1" stroke-linecap="butt" stroke-linejoin="miter" stroke-miterlimit="10" id="ygc169_0"/><path fill="rgb(0,0,0)" stroke="rgb(0,0,0)" d="M 0,0 L 10,-5 L 5,0 L 10,5 Z" fill-opacity="1" stroke-opacity="1" stroke-width="1" stroke-linecap="butt" stroke-linejoin="miter" stroke-miterlimit="10" id="ygc169_1"/><path fill="rgb(0,0,0)" stroke="rgb(0,0,0)" d="M 0,0 L 10,-5 L 5,0 L 10,5 Z" fill-opacity="1" stroke-opacity="1" stroke-width="1" stroke-linecap="butt" stroke-linejoin="miter" stroke-miterlimit="10" id="ygc169_2"/><path fill="rgb(0,0,0)" stroke="rgb(0,0,0)" d="M 0,0 L 10,-5 L 5,0 L 10,5 Z" fill-opacity="1" stroke-opacity="1" stroke-width="1" stroke-linecap="butt" stroke-linejoin="miter" stroke-miterlimit="10" id="ygc169_3"/></defs><g style="pointer-events:visiblePainted" transform="matrix(2 0 0 2 625.3333333333334 540)" image-rendering="auto" shape-rendering="auto"><g><path fill="none" stroke="rgb(0,0,0)" d="M -181.7114170725736,-91.42129556524735 L -165.5,-87" stroke-opacity="1" stroke-width="1" stroke-linecap="butt" stroke-linejoin="miter" stroke-miterlimit="10"/><use/><use xlink:href="#ygc169_0" transform="matrix(0.9647638212377322 0.263117405792109 -0.263117405792109 0.9647638212377322 -186.53523617876226 -92.7368825942079)" style="pointer-events: none;"/></g><g><path fill="none" stroke="rgb(0,0,0)" d="M -184.63318551553556,-28.742825467614757 L -163.66666666666669,-24.25" stroke-opacity="1" stroke-width="1" stroke-linecap="butt" stroke-linejoin="miter" stroke-miterlimit="10"/><use/><use xlink:href="#ygc169_0" transform="matrix(0.9778024140774095 0.20952908873087342 -0.20952908873087342 0.9778024140774095 -189.5221975859226 -29.790470911269125)" style="pointer-events: none;"/></g><g><path fill="none" stroke="rgb(0,0,0)" d="M -203.01095760157475,-113.9782039384244 L -212.5,-225 L -159.66666666666669,-225" stroke-opacity="1" stroke-width="1" stroke-linecap="butt" stroke-linejoin="miter" stroke-miterlimit="10"/><use/><use xlink:href="#ygc169_1" transform="matrix(-0.08515960026245574 -0.9963673230707332 0.9963673230707332 -0.08515960026245574 -202.58515960026247 -108.99636732307073)" style="pointer-events: none;"/></g><g><path fill="none" stroke="rgb(0,0,0)" d="M -205.08241042290578,-9.014549394982676 L -202.5,28 L -163.66666666666669,28" stroke-opacity="1" stroke-width="1" stroke-linecap="butt" stroke-linejoin="miter" stroke-miterlimit="10"/><use/><use xlink:href="#ygc169_0" transform="matrix(0.06959826284903899 0.9975751008362207 -0.9975751008362207 0.06959826284903899 -205.430401737151 -14.002424899163781)" style="pointer-events: none;"/></g><g><path fill="none" stroke="rgb(0,0,0)" d="M -206.15604287491738,-9.035973864387403 L -216.5,85 L -153.5,85" stroke-opacity="1" stroke-width="1" stroke-linecap="butt" stroke-linejoin="miter" stroke-miterlimit="10"/><use/><use xlink:href="#ygc169_0" transform="matrix(-0.10934047915289773 0.9940043559354328 -0.9940043559354328 -0.10934047915289773 -205.60934047915288 -14.005995644064566)" style="pointer-events: none;"/></g><g><path fill="none" stroke="rgb(0,0,0)" d="M -75.94916367311474,136.9594838813348 L -109.5,85" stroke-opacity="1" stroke-width="1" stroke-linecap="butt" stroke-linejoin="miter" stroke-miterlimit="10"/><use/><use xlink:href="#ygc169_2" transform="matrix(-0.5424532047783802 -0.8400860197775373 0.8400860197775373 -0.5424532047783802 -73.23689764922284 141.15991398022248)" style="pointer-events: none;"/></g><g><path fill="none" stroke="rgb(0,0,0)" d="M -67.02135846438134,71.7444498244827 L -110.5,28" stroke-opacity="1" stroke-width="1" stroke-linecap="butt" stroke-linejoin="miter" stroke-miterlimit="10"/><use/><use xlink:href="#ygc169_2" transform="matrix(-0.7049486329524449 -0.7092583625862152 0.7092583625862152 -0.7049486329524449 -63.49661529961911 75.29074163741377)" style="pointer-events: none;"/></g><g><path fill="none" stroke="rgb(0,0,0)" d="M -63.06296126128,-181.50598598874106 L -105.5,-178" stroke-opacity="1" stroke-width="1" stroke-linecap="butt" stroke-linejoin="miter" stroke-miterlimit="10"/><use/><use xlink:href="#ygc169_2" transform="matrix(-0.9966046546577794 0.08233566854315544 -0.08233566854315544 -0.9966046546577794 -58.0799379879911 -181.91766433145685)" style="pointer-events: none;"/></g><g><path fill="none" stroke="rgb(0,0,0)" d="M -64.08972245370859,-251.69302737002735 L -104.5,-225" stroke-opacity="1" stroke-width="1" stroke-linecap="butt" stroke-linejoin="miter" stroke-miterlimit="10"/><use/><use xlink:href="#ygc169_2" transform="matrix(-0.8343981867292101 0.5511621049954415 -0.5511621049954415 -0.8343981867292101 -59.91773152006254 -254.44883789500457)" style="pointer-events: none;"/></g><g><path fill="none" stroke="rgb(0,0,0)" d="M -165.5,-178 L -181.5,-176 L -200.72956160163403,-113.73284814708983" stroke-opacity="1" stroke-width="1" stroke-linecap="butt" stroke-linejoin="miter" stroke-miterlimit="10"/><use xlink:href="#ygc169_3" transform="matrix(0.2950730663943297 -0.9554746911816385 0.9554746911816385 0.2950730663943297 -202.2049269336057 -108.95547469118164)" style="pointer-events: none;"/></g><g><path fill="none" stroke="rgb(0,0,0)" d="M -108.5,-24.25 L -35.94681960152239,-89.97187445186769" stroke-opacity="1" stroke-width="1" stroke-linecap="butt" stroke-linejoin="miter" stroke-miterlimit="10"/><use xlink:href="#ygc169_3" transform="matrix(-0.7411366002537333 0.6713542580220505 -0.6713542580220505 -0.7411366002537333 -32.241136600253725 -93.32864574197794)" style="pointer-events: none;"/></g><g><path fill="none" stroke="rgb(0,0,0)" d="M -109.5,-87 L -36.61725687771778,-42.38267969116698" stroke-opacity="1" stroke-width="1" stroke-linecap="butt" stroke-linejoin="miter" stroke-miterlimit="10"/><use xlink:href="#ygc169_3" transform="matrix(-0.8528761462862975 -0.5221132818611628 0.5221132818611628 -0.8528761462862975 -32.35287614628629 -39.77211328186117)" style="pointer-events: none;"/></g><g><path fill="none" stroke="rgb(0,0,0)" d="M -108.5,-24.25 L -67.08333333333333,-24.25" stroke-opacity="1" stroke-width="1" stroke-linecap="butt" stroke-linejoin="miter" stroke-miterlimit="10"/><use xlink:href="#ygc169_3" transform="matrix(-1 0 0 -1 -62.08333333333333 -24.25)" style="pointer-events: none;"/></g><g><path fill="none" stroke="rgb(0,0,0)" d="M -109.5,-87 L -64.58256960355112,-106.60033326390496" stroke-opacity="1" stroke-width="1" stroke-linecap="butt" stroke-linejoin="miter" stroke-miterlimit="10"/><use xlink:href="#ygc169_3" transform="matrix(-0.9165393783696334 0.3999444560158399 -0.3999444560158399 -0.9165393783696334 -59.999872711702956 -108.60005554398415)" style="pointer-events: none;"/></g><g data-referencesafe="true" transform="translate(-312.6666666666667 -136)"><rect fill="#2d6f41" stroke="#FFF" stroke-width="1px" width="71.1667" height="126"/><rect fill="#FFF" x="4" y="22" width="63.1667" height="100"/><g class="demo-collapse-button" transform="translate(54.166666666666686 5)"><rect fill="#FFF" width="12" height="12" rx="1" ry="1"/><rect width="8" height="2" x="2" y="5" fill="#2d6f41" stroke-width="0"/></g></g><rect fill="rgb(23,196,7)" stroke="none" width="53.1667" height="30" x="-303.667" y="-109" fill-opacity="1"/><rect fill="rgb(23,196,7)" stroke="none" width="53.1667" height="30" x="-303.667" y="-49" fill-opacity="1"/><ellipse cx="-202.5" cy="-93" rx="15" ry="15" fill="rgb(255,140,0)" fill-opacity="1" stroke="rgb(255,140,0)" stroke-opacity="1" stroke-width="1" stroke-linecap="butt" stroke-linejoin="miter" stroke-miterlimit="10"/><ellipse cx="-205.5" cy="-30" rx="15" ry="15" fill="rgb(255,140,0)" fill-opacity="1" stroke="rgb(255,140,0)" stroke-opacity="1" stroke-width="1" stroke-linecap="butt" stroke-linejoin="miter" stroke-miterlimit="10"/><path fill="rgb(247,243,20)" stroke="none" d="M 0,15 L 13.791666666666671,0 L 41.375000000000014,0 L 55.166666666666686,15 L 41.375000000000014,30 L 13.791666666666671,30 Z" fill-opacity="1" transform="translate(-159.66666666666669 -240)"/><path fill="rgb(247,243,20)" stroke="none" d="M 0,15 L 15,0 L 45,0 L 60,15 L 45,30 L 15,30 Z" fill-opacity="1" transform="translate(-165.5 -193)"/><path fill="rgb(247,243,20)" stroke="none" d="M 0,15 L 13.291666666666671,0 L 39.875000000000014,0 L 53.166666666666686,15 L 39.875000000000014,30 L 13.291666666666671,30 Z" fill-opacity="1" transform="translate(-163.66666666666669 13)"/><path fill="rgb(247,243,20)" stroke="none" d="M 0,15 L 11,0 L 33,0 L 44,15 L 33,30 L 11,30 Z" fill-opacity="1" transform="translate(-153.5 70)"/><path fill="rgb(247,243,20)" stroke="none" d="M 0,15 L 13.791666666666671,0 L 41.375000000000014,0 L 55.166666666666686,15 L 41.375000000000014,30 L 13.791666666666671,30 Z" fill-opacity="1" transform="translate(-163.66666666666669 -39.25)"/><path fill="rgb(247,243,20)" stroke="none" d="M 0,15 L 14,0 L 42,0 L 56,15 L 42,30 L 14,30 Z" fill-opacity="1" transform="translate(-165.5 -102)"/><ellipse cx="-29.5" cy="-255" rx="29.5833" ry="15" fill="rgb(209,190,243)" fill-opacity="1"/><ellipse cx="-29.5" cy="-182" rx="27.5833" ry="15" fill="rgb(192,188,199)" fill-opacity="1"/><ellipse cx="-31.5" cy="-109" rx="27.5833" ry="15" fill="rgb(245,164,153)" fill-opacity="1"/><ellipse cx="-31.5" cy="-24.25" rx="29.5833" ry="15" fill="rgb(236,61,22)" fill-opacity="1"/><ellipse cx="-34.5" cy="76" rx="28.2917" ry="15" fill="rgb(209,190,243)" fill-opacity="1"/><ellipse cx="-43.9028" cy="142" rx="28.7917" ry="15" fill="rgb(192,188,199)" fill-opacity="1"/><g data-referencesafe="true" transform="translate(34.5 -270)"><rect fill="#68B0E3" stroke="#FFF" stroke-width="1px" width="251" height="69"/><rect fill="#FFF" x="4" y="22" width="243" height="43"/><g class="demo-collapse-button" transform="translate(234 5)"><rect fill="#FFF" width="12" height="12" rx="1" ry="1"/><rect width="8" height="2" x="2" y="5" fill="#68B0E3" stroke-width="0"/></g></g><g><path fill="none" stroke="rgb(0,0,0)" d="M 184.5,-228 L 201.5,-228" stroke-opacity="1" stroke-width="1" stroke-linecap="butt" stroke-linejoin="miter" stroke-miterlimit="10"/></g><rect fill="rgb(255,140,0)" stroke="rgb(255,140,0)" width="141" height="30" x="43.5" y="-243" stroke-opacity="1" stroke-width="1" stroke-linecap="butt" stroke-linejoin="miter" stroke-miterlimit="10" fill-opacity="1"/><rect fill="rgb(233,1,186)" stroke="none" width="75" height="30" x="201.5" y="-243" fill-opacity="1"/><g data-referencesafe="true" transform="translate(34.5 -125.21875)"><rect fill="#9b68e3" stroke="#FFF" stroke-width="1px" width="254" height="67"/><rect fill="#FFF" x="4" y="22" width="246" height="41"/><g class="demo-collapse-button" transform="translate(237 5)"><rect fill="#FFF" width="12" height="12" rx="1" ry="1"/><rect width="8" height="2" x="2" y="5" fill="#9b68e3" stroke-width="0"/></g></g><g><path fill="none" stroke="rgb(0,0,0)" d="M 175.5,-83.21875 L 204.5,-83.21875" stroke-opacity="1" stroke-width="1" stroke-linecap="butt" stroke-linejoin="miter" stroke-miterlimit="10"/></g><rect fill="rgb(255,140,0)" stroke="rgb(255,140,0)" width="132" height="30" x="43.5" y="-98.2188" stroke-opacity="1" stroke-width="1" stroke-linecap="butt" stroke-linejoin="miter" stroke-miterlimit="10" fill-opacity="1"/><rect fill="rgb(233,1,186)" stroke="none" width="75" height="30" x="204.5" y="-98.2188" fill-opacity="1"/><g data-referencesafe="true" transform="translate(36.49999999999997 -51.4375)"><rect fill="#e37a68" stroke="#FFF" stroke-width="1px" width="252" height="66"/><rect fill="#FFF" x="4" y="22" width="244" height="40"/><g class="demo-collapse-button" transform="translate(235.00000000000003 5)"><rect fill="#FFF" width="12" height="12" rx="1" ry="1"/><rect width="8" height="2" x="2" y="5" fill="#e37a68" stroke-width="0"/></g></g><g><path fill="none" stroke="rgb(0,0,0)" d="M 177.49999999999997,-9.4375 L 204.5,-9.4375" stroke-opacity="1" stroke-width="1" stroke-linecap="butt" stroke-linejoin="miter" stroke-miterlimit="10"/></g><rect fill="rgb(255,140,0)" stroke="rgb(255,140,0)" width="132" height="30" x="45.5" y="-24.4375" stroke-opacity="1" stroke-width="1" stroke-linecap="butt" stroke-linejoin="miter" stroke-miterlimit="10" fill-opacity="1"/><rect fill="rgb(233,1,186)" stroke="none" width="75" height="30" x="204.5" y="-24.4375" fill-opacity="1"/><g data-referencesafe="true" transform="translate(31.5 34)"><rect fill="#68B0E3" stroke="#FFF" stroke-width="1px" width="256" height="66"/><rect fill="#FFF" x="4" y="22" width="248" height="40"/><g class="demo-collapse-button" transform="translate(239 5)"><rect fill="#FFF" width="12" height="12" rx="1" ry="1"/><rect width="8" height="2" x="2" y="5" fill="#68B0E3" stroke-width="0"/></g></g><g><path fill="none" stroke="rgb(0,0,0)" d="M 172.5,76 L 203.5,76" stroke-opacity="1" stroke-width="1" stroke-linecap="butt" stroke-linejoin="miter" stroke-miterlimit="10"/></g><rect fill="rgb(255,140,0)" stroke="rgb(255,140,0)" width="132" height="30" x="40.5" y="61" stroke-opacity="1" stroke-width="1" stroke-linecap="butt" stroke-linejoin="miter" stroke-miterlimit="10" fill-opacity="1"/><rect fill="rgb(233,1,186)" stroke="none" width="75" height="30" x="203.5" y="61" fill-opacity="1"/><g data-referencesafe="true" transform="translate(34.5 -199)"><rect fill="#aae368" stroke="#FFF" stroke-width="1px" width="254" height="67"/><rect fill="#FFF" x="4" y="22" width="246" height="41"/><g class="demo-collapse-button" transform="translate(237 5)"><rect fill="#FFF" width="12" height="12" rx="1" ry="1"/><rect width="8" height="2" x="2" y="5" fill="#aae368" stroke-width="0"/></g></g><g><path fill="none" stroke="rgb(0,0,0)" d="M 175.5,-157 L 204.5,-157" stroke-opacity="1" stroke-width="1" stroke-linecap="butt" stroke-linejoin="miter" stroke-miterlimit="10"/></g><rect fill="rgb(255,140,0)" stroke="rgb(255,140,0)" width="132" height="30" x="43.5" y="-172" stroke-opacity="1" stroke-width="1" stroke-linecap="butt" stroke-linejoin="miter" stroke-miterlimit="10" fill-opacity="1"/><rect fill="rgb(233,1,186)" stroke="none" width="75" height="30" x="204.5" y="-172" fill-opacity="1"/><g data-referencesafe="true" transform="translate(31.49999999999997 106.86111111111109)"><rect fill="#aae368" stroke="#FFF" stroke-width="1px" width="258" height="66"/><rect fill="#FFF" x="4" y="22" width="250" height="40"/><g class="demo-collapse-button" transform="translate(241 5)"><rect fill="#FFF" width="12" height="12" rx="1" ry="1"/><rect width="8" height="2" x="2" y="5" fill="#aae368" stroke-width="0"/></g></g><g><path fill="none" stroke="rgb(0,0,0)" d="M 172.49999999999997,148.8611111111111 L 205.5,148.8611111111111" stroke-opacity="1" stroke-width="1" stroke-linecap="butt" stroke-linejoin="miter" stroke-miterlimit="10"/></g><rect fill="rgb(255,140,0)" stroke="rgb(255,140,0)" width="132" height="30" x="40.5" y="133.861" stroke-opacity="1" stroke-width="1" stroke-linecap="butt" stroke-linejoin="miter" stroke-miterlimit="10" fill-opacity="1"/><rect fill="rgb(233,1,186)" stroke="none" width="75" height="30" x="205.5" y="133.861" fill-opacity="1"/><g><path fill="none" stroke="rgb(0,0,0)" d="M -250.5,-94 L -225.5,-93 L -223.5,-93" stroke-opacity="1" stroke-width="1" stroke-linecap="butt" stroke-linejoin="miter" stroke-miterlimit="10"/><use xlink:href="#ygc169_3" transform="matrix(-1 0 0 -1 -218.5 -93)" style="pointer-events: none;"/></g><g><path fill="none" stroke="rgb(0,0,0)" d="M -250.5,-34 L -226.44736740409581,-30.79298232054611" stroke-opacity="1" stroke-width="1" stroke-linecap="butt" stroke-linejoin="miter" stroke-miterlimit="10"/><use xlink:href="#ygc169_3" transform="matrix(-0.9912279006826347 -0.13216372009101793 0.13216372009101793 -0.9912279006826347 -221.49122790068265 -30.132163720091018)" style="pointer-events: none;"/></g><g><path fill="none" stroke="rgb(0,0,0)" d="M 0.08333333333334281,-255 L 38.40488067823323,-231.16855788916013" stroke-opacity="1" stroke-width="1" stroke-linecap="butt" stroke-linejoin="miter" stroke-miterlimit="10"/><use xlink:href="#ygc169_3" transform="matrix(-0.8491865536277943 -0.5280929815266902 0.5280929815266902 -0.8491865536277943 42.650813446372204 -228.52809298152667)" style="pointer-events: none;"/></g><g><path fill="none" stroke="rgb(0,0,0)" d="M -3.916666666666657,-109 L 38.228781124341104,-86.08480156354476" stroke-opacity="1" stroke-width="1" stroke-linecap="butt" stroke-linejoin="miter" stroke-miterlimit="10"/><use xlink:href="#ygc169_3" transform="matrix(-0.8785364792764823 -0.47767526059079407 0.47767526059079407 -0.8785364792764823 42.621463520723516 -83.69642526059079)" style="pointer-events: none;"/></g><g><path fill="none" stroke="rgb(0,0,0)" d="M -1.9166666666666572,-24.25 L 39.772941065627016,-11.226576846370463" stroke-opacity="1" stroke-width="1" stroke-linecap="butt" stroke-linejoin="miter" stroke-miterlimit="10"/><use xlink:href="#ygc169_3" transform="matrix(-0.954509822395493 -0.29817947439507736 0.29817947439507736 -0.954509822395493 44.54549017760448 -9.735679474395077)" style="pointer-events: none;"/></g><g><path fill="none" stroke="rgb(0,0,0)" d="M -6.208333333333329,76 L 34.5,76" stroke-opacity="1" stroke-width="1" stroke-linecap="butt" stroke-linejoin="miter" stroke-miterlimit="10"/><use xlink:href="#ygc169_3" transform="matrix(-1 0 0 -1 39.5 76)" style="pointer-events: none;"/></g><g><path fill="none" stroke="rgb(0,0,0)" d="M -1.9166666666666572,-182 L 38.24372301198923,-159.89336347963896" stroke-opacity="1" stroke-width="1" stroke-linecap="butt" stroke-linejoin="miter" stroke-miterlimit="10"/><use xlink:href="#ygc169_3" transform="matrix(-0.8760461646684615 -0.48222724660649247 0.48222724660649247 -0.8760461646684615 42.62395383533154 -157.4822272466065)" style="pointer-events: none;"/></g><g><path fill="none" stroke="rgb(0,0,0)" d="M -15.111111111111114,142 L 34.54515056811271,148.12642189548865" stroke-opacity="1" stroke-width="1" stroke-linecap="butt" stroke-linejoin="miter" stroke-miterlimit="10"/><use xlink:href="#ygc169_3" transform="matrix(-0.992474905314544 -0.1224482026037423 0.1224482026037423 -0.992474905314544 39.507525094685434 148.73866290850737)" style="pointer-events: none;"/></g><g transform="translate(-294.58333333333337 -101)"><text font-family="Arial" font-size="12px" font-style="normal" font-weight="normal" text-anchor="start" fill="rgb(0,0,0)" fill-opacity="1" dy="1em" transform="translate(0 0)">Albam</text></g><g transform="translate(-299.58333333333337 -41)"><text font-family="Arial" font-size="12px" font-style="normal" font-weight="normal" text-anchor="start" fill="rgb(0,0,0)" fill-opacity="1" dy="1em" transform="translate(0 0)">Longam</text></g><g transform="translate(-214.5 -100)"><text font-family="Arial" font-size="12px" font-style="normal" font-weight="normal" text-anchor="start" fill="rgb(0,0,0)" fill-opacity="1" dy="1em" transform="translate(0 0)">CTS</text></g><g transform="translate(-217.5 -37)"><text font-family="Arial" font-size="12px" font-style="normal" font-weight="normal" text-anchor="start" fill="rgb(0,0,0)" fill-opacity="1" dy="1em" transform="translate(0 0)">CTS</text></g><g transform="translate(-158.08333333333334 -210)"><text font-family="Arial" font-size="12px" font-style="normal" font-weight="normal" text-anchor="start" fill="rgb(0,0,0)" fill-opacity="1" dy="1em" transform="translate(0 0)">CITE Ann</text></g><g transform="translate(-161.5 -163)"><text font-family="Arial" font-size="12px" font-style="normal" font-weight="normal" text-anchor="start" fill="rgb(0,0,0)" fill-opacity="1" dy="1em" transform="translate(0 0)">CITE Ann</text></g><g transform="translate(-163.08333333333334 43)"><text font-family="Arial" font-size="12px" font-style="normal" font-weight="normal" text-anchor="start" fill="rgb(0,0,0)" fill-opacity="1" dy="1em" transform="translate(0 0)">CITE Ann</text></g><g transform="translate(-157.5 100)"><text font-family="Arial" font-size="12px" font-style="normal" font-weight="normal" text-anchor="start" fill="rgb(0,0,0)" fill-opacity="1" dy="1em" transform="translate(0 0)">CITE Ann</text></g><g transform="translate(-162.08333333333334 -9.25)"><text font-family="Arial" font-size="12px" font-style="normal" font-weight="normal" text-anchor="start" fill="rgb(0,0,0)" fill-opacity="1" dy="1em" transform="translate(0 0)">CITE Ann</text></g><g transform="translate(-163.5 -72)"><text font-family="Arial" font-size="12px" font-style="normal" font-weight="normal" text-anchor="start" fill="rgb(0,0,0)" fill-opacity="1" dy="1em" transform="translate(0 0)">CITE Ann</text></g><g transform="translate(-65 -240)"><text font-family="Arial" font-size="12px" font-style="normal" font-weight="normal" text-anchor="start" fill="rgb(0,0,0)" fill-opacity="1" dy="1em" transform="translate(0 0)">CITE Lemma</text></g><g transform="translate(-61.99999999999999 -167)"><text font-family="Arial" font-size="12px" font-style="normal" font-weight="normal" text-anchor="start" fill="rgb(0,0,0)" fill-opacity="1" dy="1em" transform="translate(0 0)">CITE Morph</text></g><g transform="translate(-61.99999999999999 -138)"><text font-family="Arial" font-size="12px" font-style="normal" font-weight="normal" text-anchor="start" fill="rgb(0,0,0)" fill-opacity="1" dy="1em" transform="translate(0 0)">CITE Place</text></g><g transform="translate(-64.5 -9.25)"><text font-family="Arial" font-size="12px" font-style="normal" font-weight="normal" text-anchor="start" fill="rgb(0,0,0)" fill-opacity="1" dy="1em" transform="translate(0 0)">CITE Period</text></g><g transform="translate(-70 91)"><text font-family="Arial" font-size="12px" font-style="normal" font-weight="normal" text-anchor="start" fill="rgb(0,0,0)" fill-opacity="1" dy="1em" transform="translate(0 0)">CITE Lemma</text></g><g transform="translate(-76.40277777777779 157)"><text font-family="Arial" font-size="12px" font-style="normal" font-weight="normal" text-anchor="start" fill="rgb(0,0,0)" fill-opacity="1" dy="1em" transform="translate(0 0)">CITE Morph</text></g><g transform="translate(70 -235)"><text font-family="Arial" font-size="12px" font-style="normal" font-weight="normal" text-anchor="start" fill="rgb(0,0,0)" fill-opacity="1" dy="1em" transform="translate(0 0)">Linked data URI</text></g><g transform="translate(65.5 -90.21875)"><text font-family="Arial" font-size="12px" font-style="normal" font-weight="normal" text-anchor="start" fill="rgb(0,0,0)" fill-opacity="1" dy="1em" transform="translate(0 0)">Linked data URI</text></g><g transform="translate(67.49999999999997 -16.4375)"><text font-family="Arial" font-size="12px" font-style="normal" font-weight="normal" text-anchor="start" fill="rgb(0,0,0)" fill-opacity="1" dy="1em" transform="translate(0 0)">Linked data URI</text></g><g transform="translate(62.5 69)"><text font-family="Arial" font-size="12px" font-style="normal" font-weight="normal" text-anchor="start" fill="rgb(0,0,0)" fill-opacity="1" dy="1em" transform="translate(0 0)">Linked data URI</text></g><g transform="translate(65.5 -164)"><text font-family="Arial" font-size="12px" font-style="normal" font-weight="normal" text-anchor="start" fill="rgb(0,0,0)" fill-opacity="1" dy="1em" transform="translate(0 0)">Linked data URI</text></g><g transform="translate(226.5 -235)"><text font-family="Arial" font-size="12px" font-style="normal" font-weight="normal" text-anchor="start" fill="rgb(227,225,225)" fill-opacity="1" dy="1em" transform="translate(0 0)">Alba</text></g><g transform="translate(222.5 -164)"><text font-family="Arial" font-size="12px" font-style="normal" font-weight="normal" text-anchor="start" fill="rgb(227,225,225)" fill-opacity="1" dy="1em" transform="translate(0 0)">n sg f a</text></g><g transform="translate(210.5 -90.21875)"><text font-family="Arial" font-size="12px" font-style="normal" font-weight="normal" text-anchor="start" fill="rgb(227,225,225)" fill-opacity="1" dy="1em" transform="translate(0 0)">Alba Longa</text></g><g transform="translate(215.5 -16.4375)"><text font-family="Arial" font-size="12px" font-style="normal" font-weight="normal" text-anchor="start" fill="rgb(227,225,225)" fill-opacity="1" dy="1em" transform="translate(0 0)">-700 -550</text></g><g transform="translate(217.5 69)"><text font-family="Arial" font-size="12px" font-style="normal" font-weight="normal" text-anchor="start" fill="rgb(227,225,225)" fill-opacity="1" dy="1em" transform="translate(0 0)">longus 3</text></g><g transform="translate(62.49999999999997 141.8611111111111)"><text font-family="Arial" font-size="12px" font-style="normal" font-weight="normal" text-anchor="start" fill="rgb(0,0,0)" fill-opacity="1" dy="1em" transform="translate(0 0)">Linked data URI</text></g><g transform="translate(207 141.8611111111111)"><text font-family="Arial" font-size="12px" font-style="normal" font-weight="normal" text-anchor="start" fill="rgb(227,225,225)" fill-opacity="1" dy="1em" transform="translate(0 0)">adj sg f a pos</text></g></g><g transform="translate(5,860)"><a xlink:href="https://www.yworks.com" target="_blank"><g width="30px" height="30px" transform="scale(0.05)"><circle fill="#6699CC" cx="177.294" cy="267.55" r="177.294"/><path fill="#010202" d="M198.431,0c-32.78,0-62.211,41.495-76.26,86.292c1.333,6.043,5.353,10.72,12.708,8.72 c14.03-28.098,25.417-50.845,38.802-50.845c12.705,0,24.079,26.092,25.417,100.341c0.653,56.862-4.032,118.379-13.38,152.477 c-12.709,44.173-42.14,86.298-58.861,100.347c-16.054,13.377-28.1,18.727-36.796,18.727c-10.702,0-16.708-8.694-18.731-12.038 c-4.665-6.688-11.35-10.705-18.039-10.705c-14.736,0-26.761,12.038-26.761,28.78c0,16.71,13.361,30.754,34.789,30.754 c21.385,0,54.832-10.699,104.333-67.545c53.518-60.889,76.932-105.019,110.357-160.547 c59.531-100.981,78.263-187.284,77.591-204.005c0-7.355-2.005-10.699-6.021-13.376c-5.345-3.344-14.038-6.022-18.721-6.022 c-4.684,0-14.721,1.344-16.06,20.764c-0.667,17.382-10.705,84.927-24.743,123.734c-14.726,40.786-34.103,82.26-56.184,115.014 h-2.688c9.366-55.501,10.702-104.314,10.054-147.122C237.876,66.915,232.524,0,198.431,0"/></g></a><a xlink:href="https://www.yworks.com/yed-live" target="_blank" transform="translate(22,17)"><text font-family="sans-serif" font-size="12px">Created with yEd Live</text></a></g></svg>