<?xml version="1.0" encoding="UTF-8"?><svg xmlns="http://www.w3.org/2000/svg" xmlns:xlink="http://www.w3.org/1999/xlink" fill-opacity="1" color-rendering="auto" color-interpolation="auto" text-rendering="auto" stroke="black" stroke-linecap="square" width="3200" stroke-miterlimit="10" shape-rendering="auto" stroke-opacity="1" fill="black" stroke-dasharray="none" font-weight="normal" stroke-width="1" height="1636" font-family="'Dialog'" font-style="normal" stroke-linejoin="miter" font-size="12px" stroke-dashoffset="0" image-rendering="auto">
  <!--Generated by ySVG 2.5-->
  <defs id="genericDefs"/>
  <g>
    <defs id="defs1">
      <clipPath clipPathUnits="userSpaceOnUse" id="clipPath1">
        <path d="M0 0 L3200 0 L3200 1636 L0 1636 L0 0 Z"/>
      </clipPath>
      <clipPath clipPathUnits="userSpaceOnUse" id="clipPath2">
        <path d="M17 141 L719 141 L719 499.8975 L17 499.8975 L17 141 Z"/>
      </clipPath>
    </defs>
    <g fill="white" text-rendering="geometricPrecision" shape-rendering="geometricPrecision" transform="scale(4.5584,4.5584) translate(-17,-141)" stroke="white">
      <rect x="17" width="702" height="359" y="141" clip-path="url(#clipPath2)" stroke="none"/>
    </g>
    <g fill="red" text-rendering="geometricPrecision" shape-rendering="geometricPrecision" transform="matrix(4.5584,0,0,4.5584,-77.4929,-642.735)" stroke="red">
      <circle r="15" clip-path="url(#clipPath2)" cx="157" cy="248" stroke="none"/>
    </g>
    <g text-rendering="geometricPrecision" stroke-miterlimit="1.45" shape-rendering="geometricPrecision" transform="matrix(4.5584,0,0,4.5584,-77.4929,-642.735)" stroke-linecap="butt">
      <circle fill="none" r="15" clip-path="url(#clipPath2)" cx="157" cy="248"/>
      <text x="145.3369" y="252.1543" clip-path="url(#clipPath2)" fill="yellow" font-family="sans-serif" stroke="none" xml:space="preserve">CTS</text>
    </g>
    <g fill="red" text-rendering="geometricPrecision" shape-rendering="geometricPrecision" transform="matrix(4.5584,0,0,4.5584,-77.4929,-642.735)" stroke="red">
      <circle r="15" clip-path="url(#clipPath2)" cx="157" cy="407" stroke="none"/>
    </g>
    <g text-rendering="geometricPrecision" stroke-miterlimit="1.45" shape-rendering="geometricPrecision" transform="matrix(4.5584,0,0,4.5584,-77.4929,-642.735)" stroke-linecap="butt">
      <circle fill="none" r="15" clip-path="url(#clipPath2)" cx="157" cy="407"/>
      <text x="145.3369" y="411.1543" clip-path="url(#clipPath2)" fill="yellow" font-family="sans-serif" stroke="none" xml:space="preserve">CTS</text>
    </g>
    <g fill="rgb(255,204,0)" text-rendering="geometricPrecision" shape-rendering="geometricPrecision" transform="matrix(4.5584,0,0,4.5584,-77.4929,-642.735)" stroke="rgb(255,204,0)">
      <path d="M214.4306 235.4228 L233.3425 224 L260.088 224 L279 235.4228 L279 251.5772 L260.088 263 L233.3425 263 L214.4306 251.5772 Z" fill-rule="evenodd" clip-path="url(#clipPath2)" stroke="none"/>
    </g>
    <g text-rendering="geometricPrecision" stroke-miterlimit="1.45" shape-rendering="geometricPrecision" transform="matrix(4.5584,0,0,4.5584,-77.4929,-642.735)" stroke-linecap="butt">
      <path fill="none" d="M214.4306 235.4228 L233.3425 224 L260.088 224 L279 235.4228 L279 251.5772 L260.088 263 L233.3425 263 L214.4306 251.5772 Z" fill-rule="evenodd" clip-path="url(#clipPath2)"/>
      <text x="218.3442" xml:space="preserve" y="247.6543" clip-path="url(#clipPath2)" font-family="sans-serif" stroke="none">CITE URN</text>
    </g>
    <g fill="rgb(255,204,0)" text-rendering="geometricPrecision" shape-rendering="geometricPrecision" transform="matrix(4.5584,0,0,4.5584,-77.4929,-642.735)" stroke="rgb(255,204,0)">
      <path d="M208.4306 398.9228 L227.3425 387.5 L254.088 387.5 L273 398.9228 L273 415.0772 L254.088 426.5 L227.3425 426.5 L208.4306 415.0772 Z" fill-rule="evenodd" clip-path="url(#clipPath2)" stroke="none"/>
    </g>
    <g text-rendering="geometricPrecision" stroke-miterlimit="1.45" shape-rendering="geometricPrecision" transform="matrix(4.5584,0,0,4.5584,-77.4929,-642.735)" stroke-linecap="butt">
      <path fill="none" d="M208.4306 398.9228 L227.3425 387.5 L254.088 387.5 L273 398.9228 L273 415.0772 L254.088 426.5 L227.3425 426.5 L208.4306 415.0772 Z" fill-rule="evenodd" clip-path="url(#clipPath2)"/>
      <text x="212.3442" xml:space="preserve" y="411.1543" clip-path="url(#clipPath2)" font-family="sans-serif" stroke="none">CITE URN</text>
    </g>
    <g fill="rgb(255,204,153)" text-rendering="geometricPrecision" shape-rendering="geometricPrecision" transform="matrix(4.5584,0,0,4.5584,-77.4929,-642.735)" stroke="rgb(255,204,153)">
      <path d="M287.5 343.9228 L331.1412 332.5 L392.8588 332.5 L436.5 343.9228 L436.5 360.0772 L392.8588 371.5 L331.1412 371.5 L287.5 360.0772 Z" fill-rule="evenodd" clip-path="url(#clipPath2)" stroke="none"/>
    </g>
    <g text-rendering="geometricPrecision" stroke-miterlimit="1.45" shape-rendering="geometricPrecision" transform="matrix(4.5584,0,0,4.5584,-77.4929,-642.735)" stroke-linecap="butt">
      <path fill="none" d="M287.5 343.9228 L331.1412 332.5 L392.8588 332.5 L436.5 343.9228 L436.5 360.0772 L392.8588 371.5 L331.1412 371.5 L287.5 360.0772 Z" fill-rule="evenodd" clip-path="url(#clipPath2)"/>
      <text x="305.4219" xml:space="preserve" y="356.1543" clip-path="url(#clipPath2)" font-family="sans-serif" stroke="none">CITE URN for place</text>
    </g>
    <g fill="rgb(153,204,255)" text-rendering="geometricPrecision" shape-rendering="geometricPrecision" transform="matrix(4.5584,0,0,4.5584,-77.4929,-642.735)" stroke="rgb(153,204,255)">
      <rect x="460" width="255" height="30" y="337" clip-path="url(#clipPath2)" stroke="none"/>
    </g>
    <g text-rendering="geometricPrecision" stroke-miterlimit="1.45" shape-rendering="geometricPrecision" transform="matrix(4.5584,0,0,4.5584,-77.4929,-642.735)" stroke-linecap="butt">
      <rect fill="none" x="460" width="255" height="30" y="337" clip-path="url(#clipPath2)"/>
      <text x="471.792" xml:space="preserve" y="356.1543" clip-path="url(#clipPath2)" font-family="sans-serif" stroke="none">Linked data URI for Alba Longa (place)</text>
      <path fill="none" d="M214.43 245.1194 L179.9711 246.8478" clip-path="url(#clipPath2)"/>
      <path d="M171.9812 247.2486 L184.2166 251.6411 L180.9698 246.7977 L183.7156 241.6537 Z" clip-path="url(#clipPath2)" stroke="none"/>
      <path fill="none" d="M208.4636 407 L180 407" clip-path="url(#clipPath2)"/>
      <path d="M172 407 L184 412 L181 407 L184 402 Z" clip-path="url(#clipPath2)" stroke="none"/>
      <path fill="none" d="M460 352 L444.5049 352" clip-path="url(#clipPath2)"/>
      <path d="M436.5049 352 L448.5049 357 L445.5049 352 L448.5049 347 Z" clip-path="url(#clipPath2)" stroke="none"/>
    </g>
    <g fill="rgb(204,255,204)" text-rendering="geometricPrecision" shape-rendering="geometricPrecision" transform="matrix(4.5584,0,0,4.5584,-77.4929,-642.735)" stroke="rgb(204,255,204)">
      <rect x="21.8584" y="196.5391" clip-path="url(#clipPath2)" width="91.1416" rx="4" ry="4" height="240.4609" stroke="none"/>
      <rect x="21.8584" width="91.1416" height="21.4609" y="196.5391" clip-path="url(#clipPath2)" stroke="none"/>
    </g>
    <g font-size="15px" stroke-linecap="butt" transform="matrix(4.5584,0,0,4.5584,-77.4929,-642.735)" text-rendering="geometricPrecision" font-family="sans-serif" shape-rendering="geometricPrecision" font-weight="bold" stroke-miterlimit="1.45">
      <text x="37.7185" xml:space="preserve" y="212.4624" clip-path="url(#clipPath2)" stroke="none">Edition</text>
    </g>
    <g text-rendering="geometricPrecision" stroke-miterlimit="1.45" stroke-dasharray="6,2" shape-rendering="geometricPrecision" transform="matrix(4.5584,0,0,4.5584,-77.4929,-642.735)" stroke-linecap="butt">
      <rect x="21.8584" y="196.5391" clip-path="url(#clipPath2)" fill="none" width="91.1416" rx="4" ry="4" height="240.4609"/>
    </g>
    <g fill="rgb(153,204,0)" text-rendering="geometricPrecision" shape-rendering="geometricPrecision" transform="matrix(4.5584,0,0,4.5584,-77.4929,-642.735)" stroke="rgb(153,204,0)">
      <rect x="44" width="52" height="30" y="261.8056" clip-path="url(#clipPath2)" stroke="none"/>
    </g>
    <g text-rendering="geometricPrecision" stroke-miterlimit="1.45" shape-rendering="geometricPrecision" transform="matrix(4.5584,0,0,4.5584,-77.4929,-642.735)" stroke-linecap="butt">
      <rect fill="none" x="44" width="52" height="30" y="261.8056" clip-path="url(#clipPath2)"/>
      <text x="53.0518" xml:space="preserve" y="280.9598" clip-path="url(#clipPath2)" font-family="sans-serif" stroke="none">Albae</text>
    </g>
    <g fill="rgb(153,204,0)" text-rendering="geometricPrecision" shape-rendering="geometricPrecision" transform="matrix(4.5584,0,0,4.5584,-77.4929,-642.735)" stroke="rgb(153,204,0)">
      <rect x="44" width="52" height="30" y="337" clip-path="url(#clipPath2)" stroke="none"/>
    </g>
    <g text-rendering="geometricPrecision" stroke-miterlimit="1.45" shape-rendering="geometricPrecision" transform="matrix(4.5584,0,0,4.5584,-77.4929,-642.735)" stroke-linecap="butt">
      <rect fill="none" x="44" width="52" height="30" y="337" clip-path="url(#clipPath2)"/>
      <text x="48.0068" xml:space="preserve" y="356.1543" clip-path="url(#clipPath2)" font-family="sans-serif" stroke="none">Longae</text>
    </g>
    <g fill="rgb(204,255,255)" text-rendering="geometricPrecision" shape-rendering="geometricPrecision" transform="matrix(4.5584,0,0,4.5584,-77.4929,-642.735)" stroke="rgb(204,255,255)">
      <path d="M142 156.8347 L167.1833 145.4119 L202.7973 145.4119 L227.9806 156.8347 L227.9806 172.9891 L202.7973 184.4119 L167.1833 184.4119 L142 172.9891 Z" fill-rule="evenodd" clip-path="url(#clipPath2)" stroke="none"/>
    </g>
    <g text-rendering="geometricPrecision" stroke-miterlimit="1.45" shape-rendering="geometricPrecision" transform="matrix(4.5584,0,0,4.5584,-77.4929,-642.735)" stroke-linecap="butt">
      <path fill="none" d="M142 156.8347 L167.1833 145.4119 L202.7973 145.4119 L227.9806 156.8347 L227.9806 172.9891 L202.7973 184.4119 L167.1833 184.4119 L142 172.9891 Z" fill-rule="evenodd" clip-path="url(#clipPath2)"/>
      <text x="147.646" xml:space="preserve" y="169.0663" clip-path="url(#clipPath2)" font-family="sans-serif" stroke="none">parsNominis</text>
    </g>
    <g fill="rgb(255,204,204)" text-rendering="geometricPrecision" shape-rendering="geometricPrecision" transform="matrix(4.5584,0,0,4.5584,-77.4929,-642.735)" stroke="rgb(255,204,204)">
      <path d="M287.5 268.7284 L331.1414 257.3055 L392.8586 257.3055 L436.5 268.7284 L436.5 284.8827 L392.8586 296.3055 L331.1414 296.3055 L287.5 284.8827 Z" fill-rule="evenodd" clip-path="url(#clipPath2)" stroke="none"/>
    </g>
    <g text-rendering="geometricPrecision" stroke-miterlimit="1.45" shape-rendering="geometricPrecision" transform="matrix(4.5584,0,0,4.5584,-77.4929,-642.735)" stroke-linecap="butt">
      <path fill="none" d="M287.5 268.7284 L331.1414 257.3055 L392.8586 257.3055 L436.5 268.7284 L436.5 284.8827 L392.8586 296.3055 L331.1414 296.3055 L287.5 284.8827 Z" fill-rule="evenodd" clip-path="url(#clipPath2)"/>
      <text x="288.6846" xml:space="preserve" y="280.9598" clip-path="url(#clipPath2)" font-family="sans-serif" stroke="none">CITE URN for lexical ent.</text>
    </g>
    <g fill="rgb(153,204,255)" text-rendering="geometricPrecision" shape-rendering="geometricPrecision" transform="matrix(4.5584,0,0,4.5584,-77.4929,-642.735)" stroke="rgb(153,204,255)">
      <rect x="460" width="255" height="30" y="261.8056" clip-path="url(#clipPath2)" stroke="none"/>
    </g>
    <g text-rendering="geometricPrecision" stroke-miterlimit="1.45" shape-rendering="geometricPrecision" transform="matrix(4.5584,0,0,4.5584,-77.4929,-642.735)" stroke-linecap="butt">
      <rect fill="none" x="460" width="255" height="30" y="261.8056" clip-path="url(#clipPath2)"/>
      <text x="470.9189" xml:space="preserve" y="280.9598" clip-path="url(#clipPath2)" font-family="sans-serif" stroke="none">Linked data URI for Alba Longa (name)</text>
    </g>
    <g fill="rgb(204,204,255)" text-rendering="geometricPrecision" shape-rendering="geometricPrecision" transform="matrix(4.5584,0,0,4.5584,-77.4929,-642.735)" stroke="rgb(204,204,255)">
      <path d="M309.4305 467.9229 L334.614 456.5 L370.2287 456.5 L395.412 467.9229 L395.412 484.0772 L370.2287 495.5 L334.614 495.5 L309.4305 484.0772 Z" fill-rule="evenodd" clip-path="url(#clipPath2)" stroke="none"/>
    </g>
    <g text-rendering="geometricPrecision" stroke-miterlimit="1.45" shape-rendering="geometricPrecision" transform="matrix(4.5584,0,0,4.5584,-77.4929,-642.735)" stroke-linecap="butt">
      <path fill="none" d="M309.4305 467.9229 L334.614 456.5 L370.2287 456.5 L395.412 467.9229 L395.412 484.0772 L370.2287 495.5 L334.614 495.5 L309.4305 484.0772 Z" fill-rule="evenodd" clip-path="url(#clipPath2)"/>
      <text x="329.8158" xml:space="preserve" y="480.1543" clip-path="url(#clipPath2)" font-family="sans-serif" stroke="none">parsRei</text>
      <path fill="none" d="M142.7602 252.7148 L103.5945 265.6825" clip-path="url(#clipPath2)"/>
      <path d="M96 268.197 L108.9634 269.1718 L104.5439 265.3681 L105.8202 259.6786 Z" clip-path="url(#clipPath2)" stroke="none"/>
      <path fill="none" d="M144.3211 398.9846 L100.4893 371.2749" clip-path="url(#clipPath2)"/>
      <path d="M93.7273 367 L101.1986 377.6386 L101.3346 371.8092 L106.5422 369.186 Z" clip-path="url(#clipPath2)" stroke="none"/>
      <path fill="none" d="M237.373 224.0217 L219.0643 185.8488" clip-path="url(#clipPath2)"/>
      <path d="M215.6047 178.6356 L216.2859 191.6178 L219.4968 186.7505 L225.3024 187.2932 Z" clip-path="url(#clipPath2)" stroke="none"/>
      <path fill="none" d="M231.2717 387.5115 L197.8319 318.5023 L197.8319 192.4168" clip-path="url(#clipPath2)"/>
      <path d="M197.8319 184.4168 L192.8319 196.4168 L197.8319 193.4168 L202.8319 196.4168 Z" clip-path="url(#clipPath2)" stroke="none"/>
      <path fill="none" d="M362 249.328 L362 164.912 L227.9898 164.912" clip-path="url(#clipPath2)"/>
      <path d="M362 257.328 L367 245.328 L362 248.328 L357 245.328 Z" clip-path="url(#clipPath2)" stroke="none"/>
      <path fill="none" d="M460 276.8055 L444.5049 276.8055" clip-path="url(#clipPath2)"/>
      <path d="M436.5049 276.8055 L448.5049 281.8055 L445.5049 276.8055 L448.5049 271.8055 Z" clip-path="url(#clipPath2)" stroke="none"/>
      <path fill="none" d="M240.7153 426.5073 L240.7153 476 L301.4134 476" clip-path="url(#clipPath2)"/>
      <path d="M309.4134 476 L297.4134 471 L300.4134 476 L297.4134 481 Z" clip-path="url(#clipPath2)" stroke="none"/>
      <path fill="none" d="M246.7153 263.0131 L246.7153 359.5023 L311.5 398.5023 L338.3955 449.4377" clip-path="url(#clipPath2)"/>
      <path d="M342.131 456.512 L340.9492 443.5659 L337.9286 448.5534 L332.1064 448.2352 Z" clip-path="url(#clipPath2)" stroke="none"/>
      <path fill="none" d="M362 456.477 L362 379.5129" clip-path="url(#clipPath2)"/>
      <path d="M362 371.5129 L357 383.5129 L362 380.5129 L367 383.5129 Z" clip-path="url(#clipPath2)" stroke="none"/>
    </g>
  </g>
</svg>
