<?xml version="1.0" encoding="UTF-8"?><svg xmlns="http://www.w3.org/2000/svg" xmlns:xlink="http://www.w3.org/1999/xlink" fill-opacity="1" color-rendering="auto" color-interpolation="auto" text-rendering="auto" stroke="black" stroke-linecap="square" width="1600" stroke-miterlimit="10" shape-rendering="auto" stroke-opacity="1" fill="black" stroke-dasharray="none" font-weight="normal" stroke-width="1" height="1013" font-family="'Dialog'" font-style="normal" stroke-linejoin="miter" font-size="12px" stroke-dashoffset="0" image-rendering="auto">
  <!--Generated by ySVG 2.5-->
  <defs id="genericDefs"/>
  <g>
    <defs id="defs1">
      <clipPath clipPathUnits="userSpaceOnUse" id="clipPath1">
        <path d="M0 0 L1600 0 L1600 1013 L0 1013 L0 0 Z"/>
      </clipPath>
      <clipPath clipPathUnits="userSpaceOnUse" id="clipPath2">
        <path d="M-70 41 L791.9792 41 L791.9792 586.7405 L-70 586.7405 L-70 41 Z"/>
      </clipPath>
    </defs>
    <g fill="white" text-rendering="geometricPrecision" shape-rendering="geometricPrecision" transform="scale(1.8562,1.8562) translate(70,-41)" stroke="white">
      <rect x="-71" width="863" height="546" y="41" clip-path="url(#clipPath2)" stroke="none"/>
    </g>
    <g fill="red" text-rendering="geometricPrecision" shape-rendering="geometricPrecision" transform="matrix(1.8562,0,0,1.8562,129.9335,-76.1039)" stroke="red">
      <circle r="15" clip-path="url(#clipPath2)" cx="157" cy="248" stroke="none"/>
    </g>
    <g text-rendering="geometricPrecision" stroke-miterlimit="1.45" shape-rendering="geometricPrecision" transform="matrix(1.8562,0,0,1.8562,129.9335,-76.1039)" stroke-linecap="butt">
      <circle fill="none" r="15" clip-path="url(#clipPath2)" cx="157" cy="248"/>
      <text x="145.3369" xml:space="preserve" y="252.1543" clip-path="url(#clipPath2)" font-family="sans-serif" stroke="none">CTS</text>
    </g>
    <g fill="red" text-rendering="geometricPrecision" shape-rendering="geometricPrecision" transform="matrix(1.8562,0,0,1.8562,129.9335,-76.1039)" stroke="red">
      <circle r="15" clip-path="url(#clipPath2)" cx="157" cy="323" stroke="none"/>
    </g>
    <g text-rendering="geometricPrecision" stroke-miterlimit="1.45" shape-rendering="geometricPrecision" transform="matrix(1.8562,0,0,1.8562,129.9335,-76.1039)" stroke-linecap="butt">
      <circle fill="none" r="15" clip-path="url(#clipPath2)" cx="157" cy="323"/>
      <text x="145.3369" xml:space="preserve" y="327.1543" clip-path="url(#clipPath2)" font-family="sans-serif" stroke="none">CTS</text>
    </g>
    <g fill="red" text-rendering="geometricPrecision" shape-rendering="geometricPrecision" transform="matrix(1.8562,0,0,1.8562,129.9335,-76.1039)" stroke="red">
      <circle r="15" clip-path="url(#clipPath2)" cx="157" cy="407" stroke="none"/>
    </g>
    <g text-rendering="geometricPrecision" stroke-miterlimit="1.45" shape-rendering="geometricPrecision" transform="matrix(1.8562,0,0,1.8562,129.9335,-76.1039)" stroke-linecap="butt">
      <circle fill="none" r="15" clip-path="url(#clipPath2)" cx="157" cy="407"/>
      <text x="145.3369" xml:space="preserve" y="411.1543" clip-path="url(#clipPath2)" font-family="sans-serif" stroke="none">CTS</text>
    </g>
    <g fill="rgb(255,204,0)" text-rendering="geometricPrecision" shape-rendering="geometricPrecision" transform="matrix(1.8562,0,0,1.8562,129.9335,-76.1039)" stroke="rgb(255,204,0)">
      <path d="M237 235.4228 L249.3015 224 L266.6984 224 L279 235.4228 L279 251.5772 L266.6984 263 L249.3015 263 L237 251.5772 Z" fill-rule="evenodd" clip-path="url(#clipPath2)" stroke="none"/>
    </g>
    <g text-rendering="geometricPrecision" stroke-miterlimit="1.45" shape-rendering="geometricPrecision" transform="matrix(1.8562,0,0,1.8562,129.9335,-76.1039)" stroke-linecap="butt">
      <path fill="none" d="M237 235.4228 L249.3015 224 L266.6984 224 L279 235.4228 L279 251.5772 L266.6984 263 L249.3015 263 L237 251.5772 Z" fill-rule="evenodd" clip-path="url(#clipPath2)"/>
      <text x="244.585" xml:space="preserve" y="247.6543" clip-path="url(#clipPath2)" font-family="sans-serif" stroke="none">CITE</text>
    </g>
    <g fill="rgb(255,204,0)" text-rendering="geometricPrecision" shape-rendering="geometricPrecision" transform="matrix(1.8562,0,0,1.8562,129.9335,-76.1039)" stroke="rgb(255,204,0)">
      <path d="M231 314.9229 L243.3015 303.5 L260.6985 303.5 L273 314.9229 L273 331.0771 L260.6985 342.5 L243.3015 342.5 L231 331.0771 Z" fill-rule="evenodd" clip-path="url(#clipPath2)" stroke="none"/>
    </g>
    <g text-rendering="geometricPrecision" stroke-miterlimit="1.45" shape-rendering="geometricPrecision" transform="matrix(1.8562,0,0,1.8562,129.9335,-76.1039)" stroke-linecap="butt">
      <path fill="none" d="M231 314.9229 L243.3015 303.5 L260.6985 303.5 L273 314.9229 L273 331.0771 L260.6985 342.5 L243.3015 342.5 L231 331.0771 Z" fill-rule="evenodd" clip-path="url(#clipPath2)"/>
      <text x="238.585" xml:space="preserve" y="327.1543" clip-path="url(#clipPath2)" font-family="sans-serif" stroke="none">CITE</text>
    </g>
    <g fill="rgb(255,204,0)" text-rendering="geometricPrecision" shape-rendering="geometricPrecision" transform="matrix(1.8562,0,0,1.8562,129.9335,-76.1039)" stroke="rgb(255,204,0)">
      <path d="M231 398.9229 L243.3015 387.5 L260.6985 387.5 L273 398.9229 L273 415.0771 L260.6985 426.5 L243.3015 426.5 L231 415.0771 Z" fill-rule="evenodd" clip-path="url(#clipPath2)" stroke="none"/>
    </g>
    <g text-rendering="geometricPrecision" stroke-miterlimit="1.45" shape-rendering="geometricPrecision" transform="matrix(1.8562,0,0,1.8562,129.9335,-76.1039)" stroke-linecap="butt">
      <path fill="none" d="M231 398.9229 L243.3015 387.5 L260.6985 387.5 L273 398.9229 L273 415.0771 L260.6985 426.5 L243.3015 426.5 L231 415.0771 Z" fill-rule="evenodd" clip-path="url(#clipPath2)"/>
      <text x="238.585" xml:space="preserve" y="411.1543" clip-path="url(#clipPath2)" font-family="sans-serif" stroke="none">CITE</text>
    </g>
    <g fill="rgb(255,204,153)" text-rendering="geometricPrecision" shape-rendering="geometricPrecision" transform="matrix(1.8562,0,0,1.8562,129.9335,-76.1039)" stroke="rgb(255,204,153)">
      <path d="M313.5 241.7868 L349.5266 233 L400.4734 233 L436.5 241.7868 L436.5 254.2132 L400.4734 263 L349.5266 263 L313.5 254.2132 Z" fill-rule="evenodd" clip-path="url(#clipPath2)" stroke="none"/>
    </g>
    <g text-rendering="geometricPrecision" stroke-miterlimit="1.45" shape-rendering="geometricPrecision" transform="matrix(1.8562,0,0,1.8562,129.9335,-76.1039)" stroke-linecap="butt">
      <path fill="none" d="M313.5 241.7868 L349.5266 233 L400.4734 233 L436.5 241.7868 L436.5 254.2132 L400.4734 263 L349.5266 263 L313.5 254.2132 Z" fill-rule="evenodd" clip-path="url(#clipPath2)"/>
      <text x="318.4219" xml:space="preserve" y="252.1543" clip-path="url(#clipPath2)" font-family="sans-serif" stroke="none">CITE URN for place</text>
    </g>
    <g fill="rgb(255,204,153)" text-rendering="geometricPrecision" shape-rendering="geometricPrecision" transform="matrix(1.8562,0,0,1.8562,129.9335,-76.1039)" stroke="rgb(255,204,153)">
      <path d="M313.5 345.7868 L349.5267 337 L400.4733 337 L436.5 345.7868 L436.5 358.2132 L400.4733 367 L349.5267 367 L313.5 358.2132 Z" fill-rule="evenodd" clip-path="url(#clipPath2)" stroke="none"/>
    </g>
    <g text-rendering="geometricPrecision" stroke-miterlimit="1.45" shape-rendering="geometricPrecision" transform="matrix(1.8562,0,0,1.8562,129.9335,-76.1039)" stroke-linecap="butt">
      <path fill="none" d="M313.5 345.7868 L349.5267 337 L400.4733 337 L436.5 345.7868 L436.5 358.2132 L400.4733 367 L349.5267 367 L313.5 358.2132 Z" fill-rule="evenodd" clip-path="url(#clipPath2)"/>
      <text x="318.4219" xml:space="preserve" y="356.1543" clip-path="url(#clipPath2)" font-family="sans-serif" stroke="none">CITE URN for place</text>
    </g>
    <g fill="rgb(153,204,255)" text-rendering="geometricPrecision" shape-rendering="geometricPrecision" transform="matrix(1.8562,0,0,1.8562,129.9335,-76.1039)" stroke="rgb(153,204,255)">
      <rect x="460" width="232" height="30" y="233" clip-path="url(#clipPath2)" stroke="none"/>
    </g>
    <g text-rendering="geometricPrecision" stroke-miterlimit="1.45" shape-rendering="geometricPrecision" transform="matrix(1.8562,0,0,1.8562,129.9335,-76.1039)" stroke-linecap="butt">
      <rect fill="none" x="460" width="232" height="30" y="233" clip-path="url(#clipPath2)"/>
      <text x="491.9443" xml:space="preserve" y="252.1543" clip-path="url(#clipPath2)" font-family="sans-serif" stroke="none">Linked data URI for Avernus</text>
    </g>
    <g fill="rgb(153,204,255)" text-rendering="geometricPrecision" shape-rendering="geometricPrecision" transform="matrix(1.8562,0,0,1.8562,129.9335,-76.1039)" stroke="rgb(153,204,255)">
      <rect x="460" width="232" height="30" y="337" clip-path="url(#clipPath2)" stroke="none"/>
    </g>
    <g text-rendering="geometricPrecision" stroke-miterlimit="1.45" shape-rendering="geometricPrecision" transform="matrix(1.8562,0,0,1.8562,129.9335,-76.1039)" stroke-linecap="butt">
      <rect fill="none" x="460" width="232" height="30" y="337" clip-path="url(#clipPath2)"/>
      <text x="475.1572" xml:space="preserve" y="356.1543" clip-path="url(#clipPath2)" font-family="sans-serif" stroke="none">Linked data URI for Averni amnes</text>
      <path fill="none" d="M237.0405 244.4338 L179.9772 246.9763" clip-path="url(#clipPath2)"/>
      <path d="M171.9851 247.3324 L184.1958 251.7933 L180.9762 246.9317 L183.7507 241.8032 Z" clip-path="url(#clipPath2)" stroke="none"/>
      <path fill="none" d="M230.9868 323 L180 323" clip-path="url(#clipPath2)"/>
      <path d="M172 323 L184 328 L181 323 L184 318 Z" clip-path="url(#clipPath2)" stroke="none"/>
      <path fill="none" d="M230.9868 407 L180 407" clip-path="url(#clipPath2)"/>
      <path d="M172 407 L184 412 L181 407 L184 402 Z" clip-path="url(#clipPath2)" stroke="none"/>
      <path fill="none" d="M305.4854 248 L279.0299 248" clip-path="url(#clipPath2)"/>
      <path d="M313.4854 248 L301.4854 243 L304.4854 248 L301.4854 253 Z" clip-path="url(#clipPath2)" stroke="none"/>
      <path fill="none" d="M347.8633 373.004 L322 402 L273.0205 405.4985" clip-path="url(#clipPath2)"/>
      <path d="M353.1885 367.0338 L341.4694 372.6608 L347.1977 373.7502 L348.9321 379.3173 Z" clip-path="url(#clipPath2)" stroke="none"/>
      <path fill="none" d="M355 329.0205 L355 304 L275.7849 254.5927" clip-path="url(#clipPath2)"/>
      <path d="M355 337.0205 L360 325.0205 L355 328.0205 L350 325.0205 Z" clip-path="url(#clipPath2)" stroke="none"/>
      <path fill="none" d="M460 249.5263 L444.4798 249.7305" clip-path="url(#clipPath2)"/>
      <path d="M436.4805 249.8358 L448.5452 254.6775 L445.4797 249.7174 L448.4136 244.6783 Z" clip-path="url(#clipPath2)" stroke="none"/>
      <path fill="none" d="M460 352 L444.4673 352" clip-path="url(#clipPath2)"/>
      <path d="M436.4673 352 L448.4673 357 L445.4673 352 L448.4673 347 Z" clip-path="url(#clipPath2)" stroke="none"/>
    </g>
    <g fill="rgb(204,255,204)" text-rendering="geometricPrecision" shape-rendering="geometricPrecision" transform="matrix(1.8562,0,0,1.8562,129.9335,-76.1039)" stroke="rgb(204,255,204)">
      <rect x="21.8584" y="196.5391" clip-path="url(#clipPath2)" width="91.1416" rx="4" ry="4" height="240.4609" stroke="none"/>
      <rect x="21.8584" width="91.1416" height="21.4609" y="196.5391" clip-path="url(#clipPath2)" stroke="none"/>
    </g>
    <g font-size="15px" stroke-linecap="butt" transform="matrix(1.8562,0,0,1.8562,129.9335,-76.1039)" text-rendering="geometricPrecision" font-family="sans-serif" shape-rendering="geometricPrecision" stroke-miterlimit="1.45">
      <text x="48.4658" xml:space="preserve" y="212.4624" clip-path="url(#clipPath2)" stroke="none">The text</text>
      <rect x="21.8584" y="196.5391" clip-path="url(#clipPath2)" fill="none" width="91.1416" stroke-dasharray="6,2" rx="4" ry="4" height="240.4609"/>
    </g>
    <g fill="rgb(153,204,0)" text-rendering="geometricPrecision" shape-rendering="geometricPrecision" transform="matrix(1.8562,0,0,1.8562,129.9335,-76.1039)" stroke="rgb(153,204,0)">
      <rect x="44" width="52" height="30" y="233" clip-path="url(#clipPath2)" stroke="none"/>
    </g>
    <g text-rendering="geometricPrecision" stroke-miterlimit="1.45" shape-rendering="geometricPrecision" transform="matrix(1.8562,0,0,1.8562,129.9335,-76.1039)" stroke-linecap="butt">
      <rect fill="none" x="44" width="52" height="30" y="233" clip-path="url(#clipPath2)"/>
      <text x="50.7168" xml:space="preserve" y="252.1543" clip-path="url(#clipPath2)" font-family="sans-serif" stroke="none">Averni</text>
    </g>
    <g fill="rgb(153,204,0)" text-rendering="geometricPrecision" shape-rendering="geometricPrecision" transform="matrix(1.8562,0,0,1.8562,129.9335,-76.1039)" stroke="rgb(153,204,0)">
      <rect x="44" width="30" height="30" y="308" clip-path="url(#clipPath2)" stroke="none"/>
    </g>
    <g text-rendering="geometricPrecision" stroke-miterlimit="1.45" shape-rendering="geometricPrecision" transform="matrix(1.8562,0,0,1.8562,129.9335,-76.1039)" stroke-linecap="butt">
      <rect fill="none" x="44" width="30" height="30" y="308" clip-path="url(#clipPath2)"/>
      <text x="51.5146" xml:space="preserve" y="327.1543" clip-path="url(#clipPath2)" font-family="sans-serif" stroke="none">ad</text>
    </g>
    <g fill="rgb(153,204,0)" text-rendering="geometricPrecision" shape-rendering="geometricPrecision" transform="matrix(1.8562,0,0,1.8562,129.9335,-76.1039)" stroke="rgb(153,204,0)">
      <rect x="44" width="52" height="30" y="392" clip-path="url(#clipPath2)" stroke="none"/>
    </g>
    <g text-rendering="geometricPrecision" stroke-miterlimit="1.45" shape-rendering="geometricPrecision" transform="matrix(1.8562,0,0,1.8562,129.9335,-76.1039)" stroke-linecap="butt">
      <rect fill="none" x="44" width="52" height="30" y="392" clip-path="url(#clipPath2)"/>
      <text x="49.8584" xml:space="preserve" y="411.1543" clip-path="url(#clipPath2)" font-family="sans-serif" stroke="none">amnes</text>
      <path fill="none" d="M142 248 L104 248" clip-path="url(#clipPath2)"/>
      <path d="M96 248 L108 253 L105 248 L108 243 Z" clip-path="url(#clipPath2)" stroke="none"/>
      <path fill="none" d="M142 323 L82 323" clip-path="url(#clipPath2)"/>
      <path d="M74 323 L86 328 L83 323 L86 318 Z" clip-path="url(#clipPath2)" stroke="none"/>
      <path fill="none" d="M142 407 L104 407" clip-path="url(#clipPath2)"/>
      <path d="M96 407 L108 412 L105 407 L108 402 Z" clip-path="url(#clipPath2)" stroke="none"/>
    </g>
  </g>
</svg>
