<?xml version="1.0" encoding="UTF-8"?><svg xmlns="http://www.w3.org/2000/svg" xmlns:xlink="http://www.w3.org/1999/xlink" fill-opacity="1" color-rendering="auto" color-interpolation="auto" text-rendering="auto" stroke="black" stroke-linecap="square" width="1600" stroke-miterlimit="10" shape-rendering="auto" stroke-opacity="1" fill="black" stroke-dasharray="none" font-weight="normal" stroke-width="1" height="830" font-family="'Dialog'" font-style="normal" stroke-linejoin="miter" font-size="12px" stroke-dashoffset="0" image-rendering="auto">
  <!--Generated by ySVG 2.5-->
  <defs id="genericDefs"/>
  <g>
    <defs id="defs1">
      <clipPath clipPathUnits="userSpaceOnUse" id="clipPath1">
        <path d="M0 0 L1600 0 L1600 830 L0 830 L0 0 Z"/>
      </clipPath>
      <clipPath clipPathUnits="userSpaceOnUse" id="clipPath2">
        <path d="M18 134 L700.2917 134 L700.2917 487.9388 L18 487.9388 L18 134 Z"/>
      </clipPath>
    </defs>
    <g fill="white" text-rendering="geometricPrecision" shape-rendering="geometricPrecision" transform="scale(2.345,2.345) translate(-18,-134)" stroke="white">
      <rect x="18" width="683" height="354" y="134" clip-path="url(#clipPath2)" stroke="none"/>
    </g>
    <g fill="red" text-rendering="geometricPrecision" shape-rendering="geometricPrecision" transform="matrix(2.345,0,0,2.345,-42.2107,-314.2351)" stroke="red">
      <circle r="15" clip-path="url(#clipPath2)" cx="157" cy="248" stroke="none"/>
    </g>
    <g text-rendering="geometricPrecision" stroke-miterlimit="1.45" shape-rendering="geometricPrecision" transform="matrix(2.345,0,0,2.345,-42.2107,-314.2351)" stroke-linecap="butt">
      <circle fill="none" r="15" clip-path="url(#clipPath2)" cx="157" cy="248"/>
      <text x="145.3369" y="252.1543" clip-path="url(#clipPath2)" fill="yellow" font-family="sans-serif" stroke="none" xml:space="preserve">CTS</text>
    </g>
    <g fill="red" text-rendering="geometricPrecision" shape-rendering="geometricPrecision" transform="matrix(2.345,0,0,2.345,-42.2107,-314.2351)" stroke="red">
      <circle r="15" clip-path="url(#clipPath2)" cx="157" cy="323" stroke="none"/>
    </g>
    <g text-rendering="geometricPrecision" stroke-miterlimit="1.45" shape-rendering="geometricPrecision" transform="matrix(2.345,0,0,2.345,-42.2107,-314.2351)" stroke-linecap="butt">
      <circle fill="none" r="15" clip-path="url(#clipPath2)" cx="157" cy="323"/>
      <text x="145.3369" y="327.1543" clip-path="url(#clipPath2)" fill="yellow" font-family="sans-serif" stroke="none" xml:space="preserve">CTS</text>
    </g>
    <g fill="red" text-rendering="geometricPrecision" shape-rendering="geometricPrecision" transform="matrix(2.345,0,0,2.345,-42.2107,-314.2351)" stroke="red">
      <circle r="15" clip-path="url(#clipPath2)" cx="157" cy="407" stroke="none"/>
    </g>
    <g text-rendering="geometricPrecision" stroke-miterlimit="1.45" shape-rendering="geometricPrecision" transform="matrix(2.345,0,0,2.345,-42.2107,-314.2351)" stroke-linecap="butt">
      <circle fill="none" r="15" clip-path="url(#clipPath2)" cx="157" cy="407"/>
      <text x="145.3369" y="411.1543" clip-path="url(#clipPath2)" fill="yellow" font-family="sans-serif" stroke="none" xml:space="preserve">CTS</text>
    </g>
    <g fill="rgb(255,204,0)" text-rendering="geometricPrecision" shape-rendering="geometricPrecision" transform="matrix(2.345,0,0,2.345,-42.2107,-314.2351)" stroke="rgb(255,204,0)">
      <path d="M214.4305 235.4228 L233.3425 224 L260.088 224 L279 235.4228 L279 251.5772 L260.088 263 L233.3425 263 L214.4305 251.5772 Z" fill-rule="evenodd" clip-path="url(#clipPath2)" stroke="none"/>
    </g>
    <g text-rendering="geometricPrecision" stroke-miterlimit="1.45" shape-rendering="geometricPrecision" transform="matrix(2.345,0,0,2.345,-42.2107,-314.2351)" stroke-linecap="butt">
      <path fill="none" d="M214.4305 235.4228 L233.3425 224 L260.088 224 L279 235.4228 L279 251.5772 L260.088 263 L233.3425 263 L214.4305 251.5772 Z" fill-rule="evenodd" clip-path="url(#clipPath2)"/>
      <text x="218.3442" xml:space="preserve" y="247.6543" clip-path="url(#clipPath2)" font-family="sans-serif" stroke="none">CITE URN</text>
    </g>
    <g fill="rgb(255,204,0)" text-rendering="geometricPrecision" shape-rendering="geometricPrecision" transform="matrix(2.345,0,0,2.345,-42.2107,-314.2351)" stroke="rgb(255,204,0)">
      <path d="M208.4305 314.9229 L227.3425 303.5 L254.0881 303.5 L273 314.9229 L273 331.0771 L254.0881 342.5 L227.3425 342.5 L208.4305 331.0771 Z" fill-rule="evenodd" clip-path="url(#clipPath2)" stroke="none"/>
    </g>
    <g text-rendering="geometricPrecision" stroke-miterlimit="1.45" shape-rendering="geometricPrecision" transform="matrix(2.345,0,0,2.345,-42.2107,-314.2351)" stroke-linecap="butt">
      <path fill="none" d="M208.4305 314.9229 L227.3425 303.5 L254.0881 303.5 L273 314.9229 L273 331.0771 L254.0881 342.5 L227.3425 342.5 L208.4305 331.0771 Z" fill-rule="evenodd" clip-path="url(#clipPath2)"/>
      <text x="212.3442" xml:space="preserve" y="327.1543" clip-path="url(#clipPath2)" font-family="sans-serif" stroke="none">CITE URN</text>
    </g>
    <g fill="rgb(255,204,0)" text-rendering="geometricPrecision" shape-rendering="geometricPrecision" transform="matrix(2.345,0,0,2.345,-42.2107,-314.2351)" stroke="rgb(255,204,0)">
      <path d="M208.4305 398.9229 L227.3424 387.5 L254.0881 387.5 L273 398.9229 L273 415.0771 L254.0881 426.5 L227.3424 426.5 L208.4305 415.0771 Z" fill-rule="evenodd" clip-path="url(#clipPath2)" stroke="none"/>
    </g>
    <g text-rendering="geometricPrecision" stroke-miterlimit="1.45" shape-rendering="geometricPrecision" transform="matrix(2.345,0,0,2.345,-42.2107,-314.2351)" stroke-linecap="butt">
      <path fill="none" d="M208.4305 398.9229 L227.3424 387.5 L254.0881 387.5 L273 398.9229 L273 415.0771 L254.0881 426.5 L227.3424 426.5 L208.4305 415.0771 Z" fill-rule="evenodd" clip-path="url(#clipPath2)"/>
      <text x="212.3442" xml:space="preserve" y="411.1543" clip-path="url(#clipPath2)" font-family="sans-serif" stroke="none">CITE URN</text>
    </g>
    <g fill="rgb(255,204,153)" text-rendering="geometricPrecision" shape-rendering="geometricPrecision" transform="matrix(2.345,0,0,2.345,-42.2107,-314.2351)" stroke="rgb(255,204,153)">
      <path d="M313.5 235.4228 L349.5266 224 L400.4734 224 L436.5 235.4228 L436.5 251.5772 L400.4734 263 L349.5266 263 L313.5 251.5772 Z" fill-rule="evenodd" clip-path="url(#clipPath2)" stroke="none"/>
    </g>
    <g text-rendering="geometricPrecision" stroke-miterlimit="1.45" shape-rendering="geometricPrecision" transform="matrix(2.345,0,0,2.345,-42.2107,-314.2351)" stroke-linecap="butt">
      <path fill="none" d="M313.5 235.4228 L349.5266 224 L400.4734 224 L436.5 235.4228 L436.5 251.5772 L400.4734 263 L349.5266 263 L313.5 251.5772 Z" fill-rule="evenodd" clip-path="url(#clipPath2)"/>
      <text x="318.4219" xml:space="preserve" y="247.6543" clip-path="url(#clipPath2)" font-family="sans-serif" stroke="none">CITE URN for place</text>
    </g>
    <g fill="rgb(255,204,153)" text-rendering="geometricPrecision" shape-rendering="geometricPrecision" transform="matrix(2.345,0,0,2.345,-42.2107,-314.2351)" stroke="rgb(255,204,153)">
      <path d="M313.5 343.9229 L349.5267 332.5 L400.4733 332.5 L436.5 343.9229 L436.5 360.0771 L400.4733 371.5 L349.5267 371.5 L313.5 360.0771 Z" fill-rule="evenodd" clip-path="url(#clipPath2)" stroke="none"/>
    </g>
    <g text-rendering="geometricPrecision" stroke-miterlimit="1.45" shape-rendering="geometricPrecision" transform="matrix(2.345,0,0,2.345,-42.2107,-314.2351)" stroke-linecap="butt">
      <path fill="none" d="M313.5 343.9229 L349.5267 332.5 L400.4733 332.5 L436.5 343.9229 L436.5 360.0771 L400.4733 371.5 L349.5267 371.5 L313.5 360.0771 Z" fill-rule="evenodd" clip-path="url(#clipPath2)"/>
      <text x="318.4219" xml:space="preserve" y="356.1543" clip-path="url(#clipPath2)" font-family="sans-serif" stroke="none">CITE URN for place</text>
    </g>
    <g fill="rgb(153,204,255)" text-rendering="geometricPrecision" shape-rendering="geometricPrecision" transform="matrix(2.345,0,0,2.345,-42.2107,-314.2351)" stroke="rgb(153,204,255)">
      <rect x="460" width="232" height="30" y="228.5" clip-path="url(#clipPath2)" stroke="none"/>
    </g>
    <g text-rendering="geometricPrecision" stroke-miterlimit="1.45" shape-rendering="geometricPrecision" transform="matrix(2.345,0,0,2.345,-42.2107,-314.2351)" stroke-linecap="butt">
      <rect fill="none" x="460" width="232" height="30" y="228.5" clip-path="url(#clipPath2)"/>
      <text x="491.9443" xml:space="preserve" y="247.6543" clip-path="url(#clipPath2)" font-family="sans-serif" stroke="none">Linked data URI for Avernus</text>
    </g>
    <g fill="rgb(153,204,255)" text-rendering="geometricPrecision" shape-rendering="geometricPrecision" transform="matrix(2.345,0,0,2.345,-42.2107,-314.2351)" stroke="rgb(153,204,255)">
      <rect x="460" width="232" height="30" y="337" clip-path="url(#clipPath2)" stroke="none"/>
    </g>
    <g text-rendering="geometricPrecision" stroke-miterlimit="1.45" shape-rendering="geometricPrecision" transform="matrix(2.345,0,0,2.345,-42.2107,-314.2351)" stroke-linecap="butt">
      <rect fill="none" x="460" width="232" height="30" y="337" clip-path="url(#clipPath2)"/>
      <text x="475.1572" xml:space="preserve" y="356.1543" clip-path="url(#clipPath2)" font-family="sans-serif" stroke="none">Linked data URI for Averni amnes</text>
      <path fill="none" d="M214.43 245.1194 L179.9711 246.8478" clip-path="url(#clipPath2)"/>
      <path d="M171.9812 247.2486 L184.2166 251.6411 L180.9698 246.7977 L183.7156 241.6537 Z" clip-path="url(#clipPath2)" stroke="none"/>
      <path fill="none" d="M208.4636 323 L180 323" clip-path="url(#clipPath2)"/>
      <path d="M172 323 L184 328 L181 323 L184 318 Z" clip-path="url(#clipPath2)" stroke="none"/>
      <path fill="none" d="M208.4636 407 L180 407" clip-path="url(#clipPath2)"/>
      <path d="M172 407 L184 412 L181 407 L184 402 Z" clip-path="url(#clipPath2)" stroke="none"/>
      <path fill="none" d="M305.5069 246.2324 L278.9855 247.2752" clip-path="url(#clipPath2)"/>
      <path d="M313.5008 245.9181 L301.3136 241.3934 L304.5077 246.2717 L301.7065 251.3857 Z" clip-path="url(#clipPath2)" stroke="none"/>
      <path fill="none" d="M343.961 377.379 L322 402 L272.9831 405.0151" clip-path="url(#clipPath2)"/>
      <path d="M349.2861 371.4088 L337.567 377.0359 L343.2953 378.1253 L345.0298 383.6923 Z" clip-path="url(#clipPath2)" stroke="none"/>
      <path fill="none" d="M355 324.5264 L355 304 L270.429 256.7491" clip-path="url(#clipPath2)"/>
      <path d="M355 332.5264 L360 320.5264 L355 323.5264 L350 320.5264 Z" clip-path="url(#clipPath2)" stroke="none"/>
      <path fill="none" d="M460 245.4842 L444.4793 245.7497" clip-path="url(#clipPath2)"/>
      <path d="M436.4805 245.8865 L448.5642 250.6806 L445.4792 245.7326 L448.3932 240.682 Z" clip-path="url(#clipPath2)" stroke="none"/>
      <path fill="none" d="M460 352 L444.4673 352" clip-path="url(#clipPath2)"/>
      <path d="M436.4673 352 L448.4673 357 L445.4673 352 L448.4673 347 Z" clip-path="url(#clipPath2)" stroke="none"/>
    </g>
    <g fill="rgb(204,255,204)" text-rendering="geometricPrecision" shape-rendering="geometricPrecision" transform="matrix(2.345,0,0,2.345,-42.2107,-314.2351)" stroke="rgb(204,255,204)">
      <rect x="21.8584" y="196.5391" clip-path="url(#clipPath2)" width="91.1416" rx="4" ry="4" height="240.4609" stroke="none"/>
      <rect x="21.8584" width="91.1416" height="21.4609" y="196.5391" clip-path="url(#clipPath2)" stroke="none"/>
    </g>
    <g font-size="15px" stroke-linecap="butt" transform="matrix(2.345,0,0,2.345,-42.2107,-314.2351)" text-rendering="geometricPrecision" font-family="sans-serif" shape-rendering="geometricPrecision" font-weight="bold" stroke-miterlimit="1.45">
      <text x="37.7185" xml:space="preserve" y="212.4624" clip-path="url(#clipPath2)" stroke="none">Edition</text>
    </g>
    <g text-rendering="geometricPrecision" stroke-miterlimit="1.45" stroke-dasharray="6,2" shape-rendering="geometricPrecision" transform="matrix(2.345,0,0,2.345,-42.2107,-314.2351)" stroke-linecap="butt">
      <rect x="21.8584" y="196.5391" clip-path="url(#clipPath2)" fill="none" width="91.1416" rx="4" ry="4" height="240.4609"/>
    </g>
    <g fill="rgb(153,204,0)" text-rendering="geometricPrecision" shape-rendering="geometricPrecision" transform="matrix(2.345,0,0,2.345,-42.2107,-314.2351)" stroke="rgb(153,204,0)">
      <rect x="44" width="52" height="30" y="233" clip-path="url(#clipPath2)" stroke="none"/>
    </g>
    <g text-rendering="geometricPrecision" stroke-miterlimit="1.45" shape-rendering="geometricPrecision" transform="matrix(2.345,0,0,2.345,-42.2107,-314.2351)" stroke-linecap="butt">
      <rect fill="none" x="44" width="52" height="30" y="233" clip-path="url(#clipPath2)"/>
      <text x="50.7168" xml:space="preserve" y="252.1543" clip-path="url(#clipPath2)" font-family="sans-serif" stroke="none">Averni</text>
    </g>
    <g fill="rgb(153,204,0)" text-rendering="geometricPrecision" shape-rendering="geometricPrecision" transform="matrix(2.345,0,0,2.345,-42.2107,-314.2351)" stroke="rgb(153,204,0)">
      <rect x="44" width="30" height="30" y="308" clip-path="url(#clipPath2)" stroke="none"/>
    </g>
    <g text-rendering="geometricPrecision" stroke-miterlimit="1.45" shape-rendering="geometricPrecision" transform="matrix(2.345,0,0,2.345,-42.2107,-314.2351)" stroke-linecap="butt">
      <rect fill="none" x="44" width="30" height="30" y="308" clip-path="url(#clipPath2)"/>
      <text x="51.5146" xml:space="preserve" y="327.1543" clip-path="url(#clipPath2)" font-family="sans-serif" stroke="none">ad</text>
    </g>
    <g fill="rgb(153,204,0)" text-rendering="geometricPrecision" shape-rendering="geometricPrecision" transform="matrix(2.345,0,0,2.345,-42.2107,-314.2351)" stroke="rgb(153,204,0)">
      <rect x="44" width="52" height="30" y="392" clip-path="url(#clipPath2)" stroke="none"/>
    </g>
    <g text-rendering="geometricPrecision" stroke-miterlimit="1.45" shape-rendering="geometricPrecision" transform="matrix(2.345,0,0,2.345,-42.2107,-314.2351)" stroke-linecap="butt">
      <rect fill="none" x="44" width="52" height="30" y="392" clip-path="url(#clipPath2)"/>
      <text x="49.8584" xml:space="preserve" y="411.1543" clip-path="url(#clipPath2)" font-family="sans-serif" stroke="none">amnes</text>
      <path fill="none" d="M142 248 L104 248" clip-path="url(#clipPath2)"/>
      <path d="M96 248 L108 253 L105 248 L108 243 Z" clip-path="url(#clipPath2)" stroke="none"/>
      <path fill="none" d="M142 323 L82 323" clip-path="url(#clipPath2)"/>
      <path d="M74 323 L86 328 L83 323 L86 318 Z" clip-path="url(#clipPath2)" stroke="none"/>
      <path fill="none" d="M142 407 L104 407" clip-path="url(#clipPath2)"/>
      <path d="M96 407 L108 412 L105 407 L108 402 Z" clip-path="url(#clipPath2)" stroke="none"/>
    </g>
  </g>
</svg>
